<?xml version="1.0" standalone="no"?>
<!DOCTYPE svg PUBLIC "-//W3C//DTD SVG 20010904//EN"
 "http://www.w3.org/TR/2001/REC-SVG-20010904/DTD/svg10.dtd">
<svg version="1.0" xmlns="http://www.w3.org/2000/svg"
 width="549.000000pt" height="549.000000pt" viewBox="0 0 549.000000 549.000000"
 preserveAspectRatio="xMidYMid meet">
<metadata>
Created by potrace 1.11, written by Peter Selinger 2001-2013
</metadata>
<g transform="translate(0.000000,549.000000) scale(0.100000,-0.100000)"
fill="#000000" stroke="none">
<path d="M2400 5425 c-1 -11 -3 -50 -5 -88 -1 -37 -4 -69 -7 -72 -2 -3 -43 7
-89 21 -99 32 -124 34 -125 14 -2 -42 -17 -70 -36 -70 -16 0 -18 3 -9 14 9 11
6 14 -14 14 -34 0 -44 11 -22 23 17 10 24 39 8 39 -5 0 -14 -7 -21 -15 -21
-26 -28 -17 -22 30 4 38 2 44 -11 39 -10 -4 -17 -21 -19 -47 -3 -37 -5 -39
-13 -20 -8 16 -14 20 -25 13 -12 -8 -11 -14 8 -40 l23 -31 -22 -18 c-13 -11
-19 -23 -15 -30 6 -9 12 -9 24 3 16 13 17 11 13 -36 -2 -35 0 -48 8 -44 6 4
11 24 11 44 l0 37 19 -24 c13 -17 20 -20 26 -11 4 7 2 16 -6 21 -7 4 -11 11
-7 14 3 4 19 -11 34 -32 16 -20 37 -45 47 -55 10 -11 17 -35 18 -60 1 -24 2
-71 3 -105 0 -35 -2 -63 -6 -63 -4 0 -5 -6 -2 -14 3 -8 12 -12 20 -9 8 3 30
-9 49 -26 20 -17 33 -31 30 -31 -3 0 2 -12 11 -26 11 -16 20 -21 24 -14 7 12
40 -13 40 -30 0 -5 9 -12 20 -15 11 -3 20 -13 20 -21 0 -8 5 -14 10 -14 6 0
10 -6 10 -14 0 -7 14 -19 30 -26 20 -8 30 -19 27 -29 -2 -9 9 -27 24 -41 36
-34 53 -76 34 -84 -8 -3 -14 -2 -14 2 1 4 1 14 0 22 -1 13 -2 13 -11 0 -5 -8
-10 -24 -10 -35 0 -16 -6 -21 -27 -20 -16 1 -37 -5 -47 -12 -16 -10 -23 -10
-35 0 -12 9 -13 9 -7 0 4 -7 3 -13 -3 -13 -5 0 -13 4 -16 10 -4 6 -13 5 -25
-2 -15 -10 -22 -10 -32 0 -15 15 -32 16 -23 1 4 -6 -2 -5 -13 2 -12 7 -18 17
-15 23 3 5 1 6 -5 2 -6 -3 -23 -1 -39 6 -37 15 -46 16 -61 5 -9 -7 -11 -6 -6
7 4 11 14 14 35 11 16 -3 29 -1 29 5 0 10 -13 14 -40 11 -11 -1 -10 1 3 10 13
8 22 8 32 -1 11 -9 16 -7 25 10 7 12 16 18 23 13 7 -4 28 -7 47 -8 32 0 35 -2
34 -30 l-1 -30 15 24 c17 25 24 63 11 55 -5 -3 -20 3 -35 13 -25 16 -27 16
-40 -1 -14 -20 -39 -12 -30 9 3 8 -2 19 -11 27 -14 11 -15 10 -10 -12 4 -14 4
-19 1 -12 -3 6 -10 9 -16 6 -5 -3 -3 8 6 24 19 38 20 54 2 29 -13 -17 -14 -17
-18 1 -4 13 0 19 11 18 25 -2 19 26 -13 59 -16 17 -32 30 -36 30 -4 0 -14 8
-24 18 -10 9 -15 17 -12 17 3 0 -3 9 -14 20 -12 12 -25 18 -29 15 -5 -3 -7 5
-4 17 4 19 3 20 -6 8 -9 -13 -11 -13 -11 2 0 9 -5 20 -12 24 -7 4 -8 3 -4 -4
11 -19 -5 -14 -21 6 -10 11 -12 12 -8 2 4 -10 2 -9 -8 3 -8 9 -22 17 -31 17
-9 0 -16 5 -16 11 0 5 5 7 12 3 7 -4 8 -3 4 5 -6 9 -11 9 -22 0 -8 -7 -14 -7
-14 -1 0 5 -7 13 -16 16 -10 4 -13 2 -8 -7 6 -9 4 -9 -7 -1 -18 14 -90 39
-105 36 -7 -1 -11 9 -10 23 0 16 6 23 14 20 8 -3 10 0 6 6 -3 6 -14 9 -24 6
-14 -4 -17 -1 -13 12 5 13 2 12 -17 -4 -13 -11 -20 -14 -16 -7 4 7 1 15 -8 18
-9 3 -16 11 -16 17 0 5 8 2 19 -7 16 -15 19 -15 24 -2 4 10 1 13 -7 10 -8 -3
-17 -1 -20 5 -4 5 -19 8 -34 5 -16 -3 -22 -1 -15 4 9 6 6 17 -13 46 -14 21
-28 35 -31 32 -3 -2 -17 7 -31 22 -34 35 -88 61 -118 57 -13 -1 -24 2 -24 8 0
5 -8 3 -17 -4 -11 -10 -14 -10 -9 -1 4 7 2 12 -4 12 -6 0 -18 7 -27 15 -8 8
-19 13 -24 10 -5 -4 -9 -2 -9 3 0 5 -7 9 -15 10 -8 1 -22 3 -30 4 -8 1 -15 6
-16 12 0 6 -4 2 -9 -9 -7 -16 -9 -17 -9 -3 -1 23 -23 28 -39 9 -10 -13 -11
-13 -7 -1 4 11 -2 15 -18 15 -13 0 -24 -5 -24 -12 0 -6 7 -8 16 -5 14 5 14 4
1 -13 -14 -17 -13 -17 10 -11 18 5 21 5 10 -3 -8 -5 -14 -25 -15 -45 0 -25 3
-32 12 -25 8 7 10 5 8 -8 -1 -10 4 -28 12 -41 13 -22 13 -22 -7 -10 -11 7 -20
16 -20 20 0 5 -6 8 -14 8 -8 0 -18 5 -22 12 -5 7 -3 8 6 3 9 -5 11 -4 6 3 -4
7 -14 12 -22 12 -8 0 -13 4 -10 8 12 20 -54 67 -107 77 -20 4 -37 12 -37 19 0
6 -5 4 -10 -4 -5 -8 -10 -10 -10 -4 0 6 -15 10 -34 10 -19 0 -32 -5 -29 -10 4
-5 -3 -7 -14 -4 -21 6 -23 -9 -9 -67 2 -11 5 -25 5 -31 1 -6 15 -26 32 -44
l32 -33 -27 5 c-14 3 -26 1 -26 -3 0 -5 -7 -6 -15 -3 -8 3 -24 -1 -37 -10 -12
-9 -17 -16 -10 -16 7 0 10 -4 7 -10 -3 -5 -1 -10 4 -10 6 0 10 -3 9 -7 -3 -16
26 -63 39 -63 8 0 11 -4 8 -10 -3 -5 1 -10 9 -10 9 0 16 -4 16 -10 0 -5 7 -10
15 -10 8 0 15 -5 15 -10 0 -7 -6 -7 -20 0 -11 6 -20 8 -20 4 0 -13 -51 51 -70
87 -11 20 -26 39 -35 43 -9 3 -13 10 -10 16 3 5 0 10 -8 10 -8 0 -28 7 -45 16
-31 15 -38 41 -18 61 4 5 7 3 5 -2 -5 -22 14 -46 32 -40 13 4 19 1 19 -9 0 -9
5 -16 10 -16 6 0 10 7 10 16 0 8 5 12 10 9 6 -3 10 -1 10 5 0 6 4 9 8 6 5 -3
9 1 9 9 0 7 -8 12 -19 10 -10 -2 -18 0 -18 6 0 5 -5 9 -12 9 -6 0 -8 -3 -5 -7
8 -8 -25 -33 -35 -27 -14 9 -8 34 8 34 8 0 12 5 9 10 -4 6 -10 8 -15 5 -10 -6
-42 24 -36 33 2 4 -12 8 -31 9 -19 1 -46 9 -60 19 -14 9 -22 11 -19 5 4 -6 1
-11 -6 -11 -10 0 -10 -2 1 -9 8 -5 20 -7 27 -4 6 2 15 0 19 -6 9 -16 16 -55 7
-47 -4 4 -8 12 -8 17 -1 5 -2 14 -3 19 0 6 -6 10 -12 10 -6 0 -9 -7 -5 -15 5
-13 2 -13 -17 -2 -31 18 -60 15 -63 -7 -2 -14 0 -16 9 -7 19 19 28 12 17 -11
-9 -19 -9 -21 2 -8 18 20 35 23 61 8 12 -7 28 -11 36 -9 8 1 10 -2 5 -11 -6
-11 -5 -11 8 0 13 10 17 10 22 -3 3 -9 2 -13 -3 -10 -5 3 -13 0 -17 -6 -4 -8
-3 -9 4 -5 7 4 12 2 12 -5 0 -7 -11 -10 -30 -7 -17 3 -30 1 -30 -4 0 -4 -7 -8
-16 -8 -10 0 -14 6 -11 15 7 18 -9 30 -19 14 -5 -8 -3 -9 6 -4 9 6 11 4 5 -5
-6 -10 -11 -9 -22 5 -7 11 -13 15 -13 11 0 -5 -6 -3 -13 3 -8 6 -17 8 -20 4
-4 -3 -7 -2 -7 3 0 15 -140 16 -158 2 -12 -10 -14 -10 -8 0 4 6 2 12 -3 12 -6
0 -11 -5 -11 -11 0 -5 -5 -7 -10 -4 -6 4 -8 9 -6 13 2 4 -10 7 -27 6 -30 -1
-59 14 -51 27 2 3 -3 6 -11 6 -8 0 -11 -5 -8 -10 4 -6 -2 -8 -15 -5 -12 4 -25
2 -28 -3 -3 -5 -9 -7 -14 -4 -5 3 -12 0 -16 -6 -5 -8 -3 -9 6 -4 9 5 11 4 6
-4 -12 -18 -27 -2 -21 22 4 16 2 15 -10 -6 -9 -15 -13 -32 -10 -37 8 -13 -14
-52 -25 -45 -10 6 -7 -21 4 -32 4 -4 6 -3 4 2 -2 6 1 11 6 13 6 1 11 -3 12
-10 1 -7 6 -22 10 -33 7 -18 6 -19 -11 -5 -17 14 -17 14 -4 -7 8 -13 17 -23
22 -23 4 0 6 4 3 8 -7 12 12 38 21 28 4 -5 2 -11 -5 -13 -10 -4 -10 -8 0 -21
8 -9 8 -13 2 -9 -7 4 -14 0 -17 -8 -4 -10 -1 -12 10 -8 10 4 14 2 10 -4 -9
-14 21 -46 34 -38 5 4 9 1 9 -6 0 -8 5 -7 17 2 9 8 14 9 10 3 -4 -7 1 -18 10
-25 12 -10 14 -10 9 -1 -11 18 5 14 20 -5 13 -17 13 -17 14 2 1 19 1 19 11 2
10 -17 12 -17 36 -2 14 10 22 12 19 6 -4 -7 0 -11 11 -11 14 0 19 -7 19 -25 0
-26 -10 -33 -21 -15 -4 6 -26 9 -50 7 -29 -2 -42 0 -37 7 3 6 -2 5 -12 -3 -17
-14 -32 -18 -111 -25 -22 -3 -44 -5 -48 -5 -5 -1 -5 -5 -2 -11 3 -5 1 -10 -4
-10 -6 0 -11 4 -11 8 0 5 -7 9 -15 9 -11 0 -12 -4 -3 -14 8 -10 7 -12 -5 -8
-8 4 -18 2 -22 -4 -3 -6 0 -9 7 -6 9 4 14 -4 16 -21 3 -35 10 -44 27 -38 8 4
12 11 8 17 -3 6 -1 7 6 3 6 -4 9 -12 6 -17 -6 -8 7 -12 21 -6 3 1 10 -6 15
-16 8 -13 7 -23 -3 -34 -12 -15 -11 -15 12 -3 23 12 24 12 11 -4 -13 -15 -12
-18 7 -23 12 -3 19 -10 16 -17 -3 -6 1 -3 9 7 10 12 17 14 22 7 3 -5 11 -8 16
-5 5 4 9 1 9 -6 0 -6 8 -9 20 -6 11 3 20 1 20 -4 0 -5 -5 -9 -12 -9 -6 0 -8
-3 -5 -6 4 -4 14 -1 24 7 14 12 16 12 8 0 -6 -11 -4 -13 9 -8 10 4 15 3 11 -3
-3 -6 -14 -10 -23 -11 -10 0 -12 -3 -5 -5 7 -3 21 0 33 6 30 16 62 21 54 9 -3
-6 -8 -8 -11 -5 -3 3 -13 -3 -24 -12 -10 -10 -51 -23 -91 -31 -94 -17 -115
-28 -127 -62 -5 -16 -17 -29 -25 -29 -20 0 -21 -27 -2 -46 11 -11 16 -11 19
-1 4 9 6 9 6 0 1 -7 7 -13 14 -13 7 0 20 -8 29 -17 30 -32 47 -43 67 -43 11 0
23 -5 26 -10 5 -8 11 -8 20 0 10 8 14 7 18 -2 4 -10 6 -9 6 1 1 11 4 10 14 -3
13 -17 14 -17 30 -1 14 14 17 14 17 1 0 -9 7 -13 20 -11 11 2 20 1 20 -3 0 -4
21 -7 48 -6 26 0 52 -3 57 -6 13 -10 75 0 75 10 0 5 12 6 27 3 16 -3 37 -6 47
-7 11 0 21 -6 23 -12 6 -18 -26 -25 -76 -17 -25 4 -50 6 -56 4 -39 -11 -55
-14 -95 -17 -25 -1 -61 1 -80 6 -19 5 -51 11 -70 14 -80 11 -110 19 -110 28 0
5 -5 6 -10 3 -20 -12 -60 -15 -60 -5 0 7 -5 8 -12 3 -18 -11 -38 -13 -38 -3 0
4 -7 10 -14 13 -11 4 -13 1 -9 -11 5 -15 4 -16 -11 -2 -17 17 -86 15 -86 -2 0
-5 4 -7 9 -4 12 8 41 -4 41 -16 0 -5 -4 -6 -10 -3 -6 3 -7 -1 -4 -10 6 -14 8
-14 20 2 12 16 13 15 8 -10 -3 -19 0 -29 11 -33 8 -3 12 -10 9 -15 -3 -5 2 -9
10 -9 8 0 22 -7 30 -16 9 -8 16 -12 16 -9 0 4 15 -3 34 -14 35 -22 61 -28 51
-12 -3 5 7 4 22 -3 16 -7 39 -18 53 -23 24 -10 23 -11 -10 -9 -19 1 -50 -4
-67 -11 -21 -8 -33 -9 -33 -3 0 5 -5 10 -12 10 -6 0 -8 -3 -5 -7 10 -10 -31
-35 -45 -27 -8 5 -9 0 -6 -14 4 -14 2 -20 -4 -16 -6 4 -9 1 -7 -5 3 -7 7 -11
9 -9 3 2 16 -7 28 -18 13 -12 43 -27 68 -34 24 -7 41 -16 38 -21 -3 -5 0 -9 5
-9 6 0 11 5 11 11 0 8 5 8 15 -1 8 -7 13 -16 10 -20 -3 -5 0 -10 7 -12 8 -3
13 -30 14 -79 1 -73 -14 -133 -32 -127 -5 2 -10 -7 -12 -19 -2 -13 -8 -23 -13
-23 -5 0 -9 -7 -9 -15 0 -8 -6 -15 -14 -15 -8 0 -12 -9 -11 -25 3 -21 -1 -25
-21 -25 -21 0 -24 -5 -24 -35 0 -19 -4 -35 -10 -35 -5 0 -10 7 -10 15 0 8 -6
15 -13 15 -8 0 -14 -15 -15 -37 -3 -42 -7 -48 -30 -48 -13 0 -17 -10 -17 -45
l0 -45 50 -1 50 0 5 -55 5 -54 49 0 c52 0 77 -21 37 -32 -15 -4 -21 -13 -21
-32 0 -16 -10 -37 -24 -50 -38 -36 -28 -55 32 -59 56 -3 52 3 56 -77 1 -28 4
-30 41 -31 22 -1 46 -2 53 -3 8 -1 12 -19 12 -55 l0 -53 56 2 c53 1 55 1 54
-24 -5 -78 -4 -80 52 -83 l53 -3 0 -50 0 -50 53 -3 52 -3 0 -53 0 -53 53 1 52
1 3 -49 c1 -28 5 -52 8 -55 2 -3 26 -5 52 -6 l47 0 1 -40 c1 -61 3 -65 22 -65
16 0 18 -8 16 -52 -1 -29 -2 -56 -3 -60 0 -4 -14 -6 -31 -4 -20 2 -30 -1 -30
-10 0 -26 -27 -14 -40 16 -10 25 -15 28 -27 18 -25 -21 -37 -52 -38 -105 -1
-29 -7 -59 -14 -66 -14 -18 -51 -29 -51 -15 0 5 -5 6 -11 3 -6 -4 -8 -13 -5
-21 3 -7 1 -16 -5 -19 -5 -4 -8 -3 -7 2 5 14 -12 15 -42 1 -29 -12 -30 -16
-30 -75 l0 -63 45 0 45 0 0 -55 0 -55 52 2 52 3 1 -55 0 -54 53 0 52 1 0 -53
0 -54 55 0 55 0 0 -55 0 -56 43 2 c64 2 64 2 64 -43 1 -24 1 -48 2 -54 1 -6
20 -10 46 -9 25 0 45 -2 45 -5 0 -4 -15 -19 -34 -35 -19 -16 -33 -33 -30 -37
3 -4 -2 -11 -10 -14 -9 -3 -14 -10 -11 -14 3 -4 -2 -11 -11 -14 -8 -3 -12 -10
-9 -16 3 -5 1 -10 -4 -10 -6 0 -10 -3 -9 -7 1 -5 -5 -28 -12 -53 -14 -48 -17
-60 -24 -88 -3 -9 -5 -19 -6 -22 -1 -3 -1 -13 0 -24 1 -13 -2 -16 -12 -10 -10
6 -11 4 -2 -7 5 -8 10 -33 10 -56 -1 -24 2 -43 7 -43 4 0 7 -5 7 -11 0 -5 -6
-7 -12 -3 -9 5 -9 2 1 -9 11 -14 11 -20 0 -34 -12 -16 -12 -17 2 -5 14 10 17
9 22 -8 3 -12 1 -18 -5 -14 -6 4 -3 -5 6 -18 9 -14 13 -28 9 -31 -3 -4 -1 -7
6 -7 7 0 9 -4 6 -10 -3 -5 -1 -10 5 -10 7 0 10 -7 6 -15 -3 -8 0 -14 7 -12 7
1 11 -4 10 -10 -2 -7 2 -13 8 -13 5 0 7 -5 4 -10 -4 -6 -3 -9 2 -8 12 4 72
-59 65 -68 -4 -4 -2 -4 4 -1 7 4 23 -2 37 -13 37 -29 91 -50 135 -52 12 0 22
-3 22 -7 0 -4 36 -6 80 -6 44 0 80 3 80 7 0 4 9 5 20 3 11 -2 20 0 20 5 0 4 8
7 18 5 9 -1 23 2 29 7 7 6 20 8 28 4 9 -3 13 -2 10 4 -6 9 8 14 28 11 4 0 7 4
7 9 0 6 9 10 21 10 11 0 17 5 14 10 -3 6 -1 10 6 10 6 0 32 22 58 49 l46 48 0
-51 0 -51 53 0 c57 1 56 1 52 -72 l-2 -33 56 0 56 0 0 -55 0 -55 55 0 55 0 -4
-45 c-4 -49 4 -59 44 -61 71 -3 68 0 63 -53 -4 -54 3 -60 70 -56 l37 3 0 -54
0 -53 53 -3 52 -3 1 -42 c1 -24 2 -47 3 -51 0 -5 47 -8 103 -8 l102 1 1 50 0
50 53 3 52 3 0 50 c0 32 4 50 13 51 33 4 54 6 74 7 19 1 22 7 25 54 l3 52 50
0 50 0 -1 52 -2 53 54 0 54 0 0 55 0 55 54 0 55 0 3 52 3 53 40 -3 c37 -3 59
-17 50 -33 -3 -3 13 -3 35 1 22 4 40 5 40 1 1 -8 27 41 30 54 1 6 6 16 12 23
6 6 7 12 3 12 -4 0 -2 7 5 15 7 8 16 12 21 9 5 -3 6 3 2 12 -4 12 -3 15 5 10
7 -4 12 -2 12 4 0 6 4 9 8 6 5 -3 7 13 5 36 -2 26 -10 46 -25 58 -22 17 -21
17 22 13 29 -3 46 0 51 9 6 9 9 9 9 1 0 -6 -7 -19 -16 -27 -8 -9 -17 -25 -19
-36 -4 -22 18 -84 27 -75 3 3 11 -2 19 -12 12 -15 12 -16 -1 -9 -8 4 -7 1 4
-8 10 -8 15 -19 11 -25 -3 -6 -1 -11 5 -11 6 0 9 -4 5 -9 -3 -5 -1 -12 5 -16
6 -4 8 -11 5 -16 -4 -5 1 -9 10 -9 9 0 14 -4 11 -9 -3 -5 10 -7 30 -5 20 2 37
5 38 6 0 2 12 16 26 32 14 16 19 26 13 22 -18 -10 -4 25 16 42 9 8 10 11 4 7
-8 -4 -11 -1 -7 9 3 9 10 14 14 13 5 -1 15 7 23 17 14 19 55 16 43 -3 -3 -5 1
-12 10 -15 8 -3 12 -10 9 -16 -3 -5 0 -10 7 -10 11 0 10 -2 0 -9 -11 -6 -10
-10 3 -15 11 -4 15 -13 12 -26 -3 -11 -2 -18 2 -16 4 3 23 1 42 -3 31 -7 37
-4 64 28 17 19 23 31 15 26 -12 -7 -13 -6 -3 7 7 8 9 19 5 23 -4 5 0 6 9 3 10
-4 15 0 15 11 -1 9 2 16 7 16 13 0 38 59 35 85 -2 14 -11 31 -21 39 -15 11
-18 24 -15 76 2 35 1 62 -3 60 -3 -3 -6 9 -7 25 0 17 -4 40 -7 52 -6 17 -4 20
11 14 16 -5 16 -4 -2 11 -19 16 -38 51 -34 62 1 2 -5 8 -14 13 -9 5 -14 13
-11 19 4 5 -1 9 -9 9 -9 0 -16 3 -16 8 0 4 -14 15 -30 24 -45 26 -37 39 22 36
l52 -3 1 55 c0 36 4 55 13 56 6 1 32 2 56 3 l44 1 -3 50 -2 50 41 1 c22 1 47
1 54 0 12 -2 14 7 14 71 l0 38 54 0 54 0 0 53 0 54 43 0 c23 1 48 1 55 2 9 1
11 15 9 47 -2 25 1 48 7 51 5 4 30 7 55 7 l45 1 0 53 -1 52 59 0 58 0 0 70 c0
38 -3 69 -7 69 -34 -5 -52 3 -48 21 6 32 -4 47 -29 45 -35 -4 -44 6 -48 55 -3
40 -6 45 -28 48 -19 2 -32 15 -49 47 -16 30 -31 45 -45 46 -49 3 -51 4 -52 36
0 17 -5 37 -10 45 -6 7 -10 27 -10 43 1 29 3 30 49 31 26 1 50 4 53 7 3 3 7
27 7 54 l2 48 53 0 52 -1 0 52 0 53 53 3 52 3 0 50 0 50 55 5 55 5 -1 51 -1
51 53 -2 54 -2 0 53 c0 59 -6 55 78 57 29 1 33 4 31 27 -4 79 -4 80 54 80 l52
0 0 53 0 52 47 0 c26 0 50 4 54 8 4 4 6 27 6 52 -2 49 -5 47 71 48 36 0 38 2
37 31 -4 75 -4 75 53 78 50 3 52 4 52 33 0 25 -4 30 -28 33 -15 2 -27 6 -28
10 -1 4 -2 26 -4 49 -1 23 -10 54 -20 69 l-18 27 -18 -34 c-21 -40 -21 -40
-24 32 -3 61 -26 120 -33 86 -7 -36 -35 -8 -47 47 -5 23 -9 26 -15 16 -11 -18
-21 -9 -23 20 -1 13 -10 25 -20 28 -10 2 -17 12 -16 21 3 34 -2 52 -13 50 -34
-4 -38 2 -38 61 0 57 -1 60 -24 60 -14 0 -28 5 -31 10 -3 6 3 10 15 10 11 0
32 7 45 16 14 9 32 13 45 9 24 -8 35 13 26 50 -7 29 -26 24 -26 -6 0 -10 -4
-19 -10 -19 -5 0 -10 20 -10 45 0 26 5 45 11 45 6 0 9 7 5 15 -3 8 4 21 17 30
13 10 18 18 12 23 -12 8 -17 83 -9 121 4 20 7 22 15 10 7 -11 9 -10 10 6 1 11
3 25 3 32 1 6 5 15 9 19 4 4 2 13 -4 20 -6 8 -9 20 -6 27 3 8 1 20 -5 28 -8
11 -9 11 -4 -3 3 -10 1 -20 -5 -23 -5 -4 -7 -10 -5 -14 3 -4 -1 -8 -9 -8 -9 0
-11 4 -6 11 5 6 8 28 7 49 -2 22 2 37 8 37 6 0 5 4 -2 9 -8 4 -13 10 -12 12 1
2 -2 12 -5 21 -4 9 -1 26 5 38 8 15 8 20 1 16 -10 -6 -16 13 -12 37 0 4 -6 7
-15 7 -8 0 -12 4 -9 10 16 26 12 46 -8 47 -12 1 -25 -3 -30 -10 -6 -8 -7 -8
-4 3 2 8 -3 21 -12 28 -14 11 -13 12 6 3 32 -16 42 -13 13 4 -22 12 -27 11
-44 -3 -18 -16 -18 -16 -7 6 8 14 8 22 1 22 -5 0 -10 -4 -10 -10 0 -5 -5 -10
-11 -10 -5 0 -8 3 -6 8 4 6 -37 7 -85 3 -5 -1 -8 -9 -9 -18 0 -15 -2 -15 -9 2
-6 13 -9 15 -9 5 -1 -13 -2 -13 -11 0 -9 13 -10 13 -10 0 0 -12 -2 -12 -9 -2
-7 11 -9 10 -15 -3 -3 -9 -10 -13 -16 -10 -5 3 -11 -1 -11 -9 -3 -37 -5 -41
-23 -38 -10 2 -15 -1 -12 -6 3 -5 -1 -15 -9 -22 -8 -7 -12 -16 -9 -21 3 -5 -3
-6 -12 -2 -12 4 -15 3 -10 -6 4 -6 4 -11 -1 -10 -21 4 -24 -2 -12 -18 13 -16
12 -17 -3 -5 -9 8 -14 21 -12 30 5 15 4 16 -8 1 -7 -9 -19 -14 -27 -11 -9 3
-11 0 -6 -8 5 -9 4 -11 -3 -6 -7 4 -12 14 -12 22 0 14 -12 18 -38 15 -8 -1
-21 6 -29 16 -8 10 -12 13 -9 7 3 -6 -1 -11 -9 -11 -20 0 -7 17 22 28 15 6 22
14 17 21 -4 7 -4 10 1 6 4 -4 15 -2 24 4 13 10 13 9 -1 -7 -12 -14 -14 -25 -8
-35 9 -13 10 -13 10 0 0 8 9 26 20 40 11 14 19 18 18 10 -2 -8 -10 -21 -18
-28 -12 -10 -10 -10 12 -1 15 7 27 15 26 18 -2 19 3 31 11 26 5 -3 12 -1 16 5
4 6 11 8 16 4 6 -4 6 -11 -1 -19 -14 -17 -4 -35 18 -34 15 1 15 2 0 6 -10 2
-18 9 -18 14 0 6 5 7 10 4 6 -4 10 -3 9 2 -4 21 2 43 12 43 5 0 7 -4 4 -10 -3
-5 -1 -10 4 -10 6 0 11 5 11 11 0 6 6 9 14 6 10 -4 14 0 11 14 -2 12 4 23 18
30 20 9 21 9 4 -4 -17 -14 -17 -15 0 -21 10 -4 14 -4 10 0 -4 4 -2 13 5 21 6
7 8 16 5 20 -4 3 -2 12 5 20 8 11 7 12 -6 7 -9 -3 -16 -2 -16 3 0 4 14 9 31 9
23 1 28 -1 18 -8 -10 -7 -8 -8 6 -2 11 4 30 8 43 8 12 1 22 5 22 9 0 5 4 6 9
2 5 -3 12 -1 16 5 3 5 11 10 16 10 6 0 7 -5 3 -12 -4 -7 -3 -8 5 -4 6 4 9 12
6 17 -4 5 1 9 10 9 13 0 14 4 5 20 -9 16 -8 18 5 14 8 -4 15 -13 15 -22 0 -32
11 -2 13 36 2 32 0 38 -10 30 -7 -6 -10 -14 -7 -19 3 -5 -2 -6 -10 -3 -14 5
-14 8 -1 21 18 18 20 36 3 30 -7 -2 -21 0 -31 5 -14 7 -25 4 -45 -14 -15 -12
-20 -15 -13 -5 13 17 12 18 -20 14 -19 -2 -41 -7 -48 -11 -7 -5 -5 4 5 20 11
15 13 25 7 21 -7 -5 -13 -4 -13 2 0 6 -5 11 -11 11 -8 0 -8 -4 0 -14 9 -11 9
-16 0 -22 -7 -4 -9 -3 -5 4 3 5 1 12 -5 14 -5 2 -7 11 -4 21 4 9 11 14 16 11
5 -3 6 2 3 11 -4 9 -12 14 -18 12 -6 -2 -18 -1 -27 4 -10 5 -16 4 -16 -5 0 -8
10 -12 24 -10 13 1 21 -2 17 -7 -3 -5 -9 -7 -14 -4 -12 8 -41 -6 -34 -16 3 -5
10 -6 16 -3 7 4 8 2 4 -4 -5 -8 -15 -8 -34 -2 -25 9 -26 9 -8 -5 27 -21 11
-31 -27 -17 l-32 12 25 -20 c18 -15 20 -18 6 -13 -13 4 -17 3 -12 -5 3 -6 2
-13 -3 -16 -4 -3 -8 4 -7 17 1 14 -4 21 -13 19 -11 -2 -12 0 -3 11 7 8 9 17 5
20 -12 13 13 7 27 -5 12 -11 12 -10 2 4 -7 9 -9 18 -5 20 4 3 3 3 -4 2 -7 -2
-10 3 -6 13 5 11 3 14 -6 8 -10 -6 -11 -3 -2 14 7 11 17 21 24 21 7 0 6 -4 -3
-10 -13 -8 -13 -11 -1 -22 9 -8 11 -9 7 -1 -3 6 -2 15 4 18 8 5 8 11 0 20 -13
16 -40 9 -40 -10 0 -7 -7 -16 -16 -19 -14 -5 -15 -4 -5 8 9 10 9 20 0 40 -7
14 -16 23 -20 20 -5 -3 -5 -14 1 -24 15 -27 12 -34 -6 -16 -8 9 -20 13 -26 10
-7 -4 -8 -2 -4 5 4 6 12 9 17 6 5 -3 6 1 3 9 -3 9 -2 16 2 17 5 0 19 2 31 5
12 2 30 -4 39 -14 10 -9 19 -16 21 -14 9 7 23 1 18 -8 -3 -6 1 -7 10 -3 13 5
14 7 3 14 -10 7 -10 9 2 9 9 0 7 5 -8 16 -17 12 -20 19 -12 29 7 8 7 15 1 19
-5 4 -13 1 -17 -5 -4 -8 -9 -7 -15 2 -6 10 -9 11 -9 2 0 -7 -7 -13 -16 -13 -8
0 -12 -4 -9 -10 3 -5 1 -10 -5 -10 -7 0 -9 7 -6 16 3 9 6 18 6 20 0 3 5 2 12
-2 7 -4 8 -3 4 4 -5 9 -13 9 -26 2 -10 -5 -27 -7 -37 -4 -15 5 -16 4 -3 -6 12
-9 10 -11 -12 -7 -15 2 -25 1 -23 -4 3 -4 -4 -10 -15 -14 -11 -4 -18 -10 -15
-15 3 -5 0 -12 -6 -16 -7 -4 -9 -3 -5 4 3 6 2 13 -4 17 -6 3 -10 -3 -10 -15 0
-16 -5 -20 -15 -16 -8 3 -14 2 -14 -2 3 -20 -3 -23 -18 -11 -15 12 -16 12 -10
-4 4 -11 3 -16 -4 -12 -6 4 -17 -1 -25 -11 -9 -11 -12 -12 -8 -4 4 8 14 23 22
33 8 9 12 20 7 25 -4 4 -10 1 -12 -5 -6 -18 -20 -16 -20 2 0 8 4 12 9 9 4 -3
8 1 8 8 1 7 9 3 20 -10 17 -21 19 -21 17 -3 0 11 -5 17 -9 15 -5 -3 -11 2 -14
10 -3 9 -12 16 -19 16 -7 0 -15 3 -18 8 -2 4 -2 2 -1 -5 6 -24 -35 -36 -70
-20 -13 6 -16 6 -12 -2 4 -6 0 -14 -8 -17 -9 -3 -14 -10 -11 -14 5 -8 -48 -33
-71 -33 -10 0 -11 -4 -3 -13 8 -9 5 -11 -10 -7 -12 3 -21 1 -21 -6 0 -6 -9
-11 -20 -11 -11 0 -20 -4 -20 -9 0 -6 -8 -8 -18 -6 -14 2 -18 -2 -17 -18 1
-12 -7 -28 -17 -35 -12 -9 -17 -21 -13 -32 3 -10 1 -21 -5 -25 -6 -3 -8 -11
-5 -16 4 -5 -1 -12 -9 -15 -9 -3 -13 -10 -10 -15 3 -5 -2 -9 -10 -9 -21 0 -20
6 5 47 12 18 19 43 16 53 -3 11 -1 18 4 14 5 -3 9 2 9 12 0 11 -6 15 -20 11
-19 -5 -28 7 -12 16 8 4 -11 0 -35 -9 -15 -5 -14 -4 2 10 15 12 16 15 3 10
-11 -4 -18 1 -23 15 -6 21 -35 30 -35 11 0 -6 5 -9 11 -8 6 2 13 -2 16 -9 2
-7 -4 -11 -16 -10 -11 0 -19 6 -18 12 1 5 -5 9 -13 7 -12 -3 -11 0 2 15 13 14
14 22 7 33 -9 13 -10 12 -5 -2 3 -11 -2 -21 -14 -28 -24 -13 -40 -13 -18 1 10
5 15 16 11 25 -5 15 -7 15 -15 0 -8 -14 -12 -15 -25 -4 -15 12 -15 10 -3 -12
13 -24 12 -24 -5 -10 -11 9 -16 10 -11 3 4 -8 1 -13 -9 -13 -9 0 -13 -5 -10
-10 9 -14 -14 -42 -28 -33 -6 4 -8 0 -4 -10 5 -14 2 -15 -18 -7 -23 9 -29 6
-26 -12 0 -5 -4 -8 -9 -8 -6 0 -10 -5 -10 -12 0 -6 9 -3 20 7 15 14 23 16 30
7 6 -7 7 -10 4 -7 -11 7 -45 -15 -39 -25 3 -6 -1 -7 -9 -4 -9 3 -16 10 -16 14
0 4 -8 7 -17 7 -34 0 -41 3 -47 19 -6 15 -4 15 10 3 15 -12 16 -11 9 11 -7 23
-7 24 10 10 12 -10 16 -10 11 -2 -4 7 -3 19 3 26 8 9 7 13 -4 13 -8 0 -12 -3
-10 -7 2 -3 -5 -11 -16 -18 -23 -15 -24 -5 -3 28 l16 25 -21 -24 c-20 -23 -26
-18 -22 19 1 11 -1 11 -9 -3 -7 -10 -20 -16 -33 -14 -12 2 -16 2 -9 0 20 -7
13 -26 -8 -20 -11 3 -18 1 -15 -3 6 -10 -55 -100 -67 -100 -4 0 -8 -5 -8 -12
0 -9 3 -9 12 0 7 7 19 12 28 12 13 0 13 -1 0 -10 -12 -8 -10 -10 8 -10 16 0
21 4 16 13 -6 9 -5 9 8 0 8 -7 18 -10 21 -6 4 3 -1 12 -11 20 -15 13 -15 13 5
4 28 -14 36 -14 27 2 -4 6 -3 9 1 4 5 -4 10 -24 12 -44 4 -33 2 -35 -13 -22
-10 8 -15 9 -11 2 4 -7 -1 -14 -13 -18 -11 -4 -18 -11 -15 -16 12 -18 -4 -9
-32 18 -21 22 -25 23 -19 8 5 -11 9 -28 10 -38 0 -11 6 -15 15 -12 12 5 11 2
-2 -13 -9 -10 -18 -30 -19 -43 -1 -14 -11 -33 -22 -44 -10 -11 -16 -14 -12 -8
5 9 2 11 -8 7 -9 -3 -14 -10 -11 -14 3 -5 -4 -11 -15 -15 -11 -4 -18 -10 -16
-13 2 -4 -6 -29 -18 -54 -16 -32 -26 -44 -33 -37 -7 7 -15 5 -26 -5 -9 -9 -18
-16 -21 -16 -12 0 -80 -52 -94 -71 -9 -14 -20 -18 -34 -13 -15 4 -18 3 -13 -6
6 -9 4 -11 -5 -5 -11 7 -10 10 1 19 8 7 20 18 28 26 8 8 11 9 7 3 -5 -9 -2
-11 8 -7 9 3 12 12 9 21 -4 11 -2 14 5 9 7 -4 15 0 18 9 5 12 10 13 20 4 10
-8 12 -7 9 9 -3 15 1 19 16 15 14 -4 19 0 19 13 0 16 -2 17 -10 4 -5 -8 -10
-10 -10 -4 0 18 12 24 26 13 10 -8 12 -6 9 10 -2 11 1 24 7 27 7 4 8 2 4 -4
-4 -7 -3 -12 2 -12 5 0 14 18 21 40 7 22 16 38 21 35 5 -3 11 4 15 15 4 11 11
17 17 14 7 -4 8 -2 4 5 -6 9 -11 9 -24 -1 -14 -11 -15 -10 -8 7 5 14 1 24 -16
37 -15 12 -17 16 -5 12 9 -3 17 -1 17 5 0 6 5 11 11 11 5 0 7 -4 4 -10 -8 -13
35 -13 55 0 9 5 19 5 25 0 8 -7 12 -5 12 5 0 8 -4 12 -9 9 -4 -3 -8 2 -8 11 0
10 -5 14 -12 9 -10 -5 -10 -3 0 7 11 12 14 12 21 0 5 -8 11 -9 15 -3 3 5 -1
15 -9 22 -12 10 -18 10 -30 0 -12 -10 -15 -10 -15 1 0 11 -2 11 -10 -1 -5 -8
-10 -10 -10 -5 0 6 -10 11 -22 12 -22 2 -22 1 2 -12 14 -7 28 -11 32 -9 5 3 8
0 8 -6 0 -7 -6 -10 -14 -7 -8 3 -17 1 -20 -6 -2 -7 -5 -3 -5 7 -1 11 -4 16 -8
13 -3 -4 -12 -2 -20 5 -11 9 -13 8 -11 -3 2 -8 -3 -13 -11 -11 -7 2 -11 -3 -9
-10 3 -7 2 -22 -2 -32 -6 -19 -7 -19 -12 2 -4 14 -2 20 4 15 7 -3 8 -1 4 5 -5
9 -14 7 -32 -4 -24 -16 -35 -32 -11 -18 9 6 8 3 -1 -9 -14 -17 -17 -16 49 -18
22 0 20 -9 -3 -13 -21 -3 -39 -17 -33 -26 3 -5 0 -12 -6 -16 -7 -4 -9 -3 -5 4
4 7 -1 10 -14 9 -22 -1 -26 -12 -7 -21 7 -3 6 -5 -3 -3 -9 1 -28 -8 -44 -21
-16 -12 -23 -22 -17 -22 7 0 9 -5 5 -11 -4 -8 -9 -7 -14 2 -11 16 -1 41 13 32
6 -3 7 -1 3 5 -4 6 -13 9 -21 6 -8 -4 -12 -10 -9 -15 3 -5 -3 -9 -13 -10 -10
0 -13 -3 -5 -6 15 -6 16 -33 1 -33 -5 0 -7 5 -4 10 3 6 -1 10 -9 10 -8 0 -18
-5 -21 -10 -4 -6 -12 -7 -18 -3 -7 3 -3 -4 8 -17 l20 -23 -22 12 c-16 8 -23 8
-23 1 0 -6 -4 -9 -9 -5 -5 3 -13 0 -17 -6 -4 -8 -3 -9 4 -5 7 4 12 2 12 -3 0
-10 -13 -15 -32 -12 -4 0 -5 -8 -3 -20 3 -14 -1 -19 -13 -17 -11 2 -16 -2 -13
-12 2 -8 4 -21 4 -28 0 -7 7 -11 16 -7 15 5 15 4 0 -7 -9 -7 -14 -20 -11 -28
2 -9 -2 -7 -11 5 -14 18 -16 18 -13 2 1 -10 9 -23 17 -28 10 -6 10 -9 2 -9 -7
0 -13 -7 -13 -15 0 -27 -59 -83 -81 -78 -15 4 -18 2 -13 -11 3 -9 2 -16 -4
-16 -6 0 -13 6 -15 13 -3 7 -6 5 -6 -5 -1 -10 4 -18 11 -18 6 0 9 -2 6 -5 -8
-8 -39 6 -33 15 3 5 1 12 -5 15 -6 4 -9 3 -8 -2 4 -10 -5 -13 -37 -13 -19 0
-23 4 -18 17 5 12 2 15 -8 11 -20 -8 -54 6 -55 23 -2 35 -5 40 -15 34 -6 -4
-8 -13 -5 -21 3 -8 0 -11 -10 -7 -7 3 -14 7 -14 10 0 14 32 62 53 77 15 12 23
26 20 36 -3 12 5 22 26 31 17 8 31 20 31 26 0 7 5 13 10 13 6 0 10 5 10 11 0
20 73 80 81 67 5 -8 12 -2 21 17 18 40 69 86 90 81 17 -4 33 20 19 28 -4 3 -7
53 -5 110 2 104 2 106 32 131 17 14 34 34 37 45 3 10 13 21 23 25 14 5 15 4 5
-6 -7 -7 -13 -19 -13 -26 0 -22 19 -14 34 15 l15 27 1 -47 c0 -27 5 -48 11
-48 7 0 9 18 7 50 -4 47 -3 49 13 34 13 -12 19 -12 25 -3 4 7 -2 19 -15 30
l-23 19 21 26 c17 21 19 30 9 41 -10 12 -14 11 -24 -9 -13 -22 -13 -21 -14 18
0 45 -5 55 -25 48 -8 -4 -10 -16 -5 -45 8 -41 1 -49 -20 -24 -7 8 -16 15 -21
15 -15 0 -10 -30 6 -36 26 -10 16 -24 -17 -25 -18 0 -27 -3 -20 -6 15 -6 6
-23 -13 -23 -14 0 -24 19 -32 60 -2 13 -6 26 -8 28 -2 2 -47 -10 -101 -27 -54
-17 -101 -28 -104 -25 -3 3 -6 31 -7 62 -2 83 -2 84 -12 77 -5 -3 -10 -29 -10
-58 0 -84 -7 -102 -46 -109 -19 -3 -21 1 -24 42 0 11 -8 20 -16 20 -11 0 -15
-11 -15 -41 0 -36 -3 -41 -30 -50 -35 -13 -36 -16 -13 -41 15 -17 15 -18 -5
-18 -11 0 -23 -4 -27 -10 -3 -5 -12 -7 -19 -4 -8 3 -17 1 -20 -4 -7 -12 -46
-4 -46 9 0 14 -20 11 -36 -6 -10 -10 -21 -12 -32 -6 -9 4 -34 11 -55 15 -36 7
-38 8 -23 25 22 24 21 27 -14 40 -29 10 -37 31 -31 79 2 8 -5 12 -16 10 -12
-2 -18 -12 -18 -28 0 -27 -4 -30 -34 -30 -13 0 -22 12 -31 45 -7 24 -10 53 -8
63 3 11 2 37 -2 58 -4 21 -9 30 -10 19z m2334 -130 c-4 -8 -10 -12 -15 -9 -5
3 -9 0 -9 -5 0 -6 -6 -11 -12 -11 -7 1 -2 10 11 20 28 24 32 25 25 5z m96 -41
c0 -2 -13 4 -29 14 -16 9 -27 20 -25 24 4 6 54 -30 54 -38z m-150 22 c0 -2 -7
-7 -16 -10 -8 -3 -12 -2 -9 4 6 10 25 14 25 6z m-235 -27 c-4 -5 -2 -9 4 -9 5
0 11 6 14 13 3 6 4 2 4 -9 -1 -19 -4 -21 -27 -13 -22 8 -23 8 -7 -5 9 -7 17
-16 17 -20 0 -11 -28 -6 -32 6 -3 7 -7 5 -11 -6 -4 -9 -3 -15 2 -11 5 3 12 2
15 -3 2 -4 -3 -8 -13 -9 -9 -1 -23 8 -31 20 -12 21 -12 21 5 7 17 -14 18 -13
12 3 -4 10 -3 16 2 13 4 -3 13 6 20 20 6 14 16 22 21 19 6 -4 8 -11 5 -16z
m249 -1 c-3 -4 -9 -8 -15 -8 -5 0 -9 4 -9 8 0 5 7 9 15 9 8 0 12 -4 9 -9z
m-3947 -37 c0 -11 -5 -18 -9 -15 -4 3 -5 11 -1 19 7 21 12 19 10 -4z m-494
-31 c-3 -12 -8 -19 -11 -16 -5 6 5 36 12 36 2 0 2 -9 -1 -20z m57 -3 c0 -7 -4
-6 -10 3 -8 13 -14 8 -12 -11 1 -3 -6 -6 -14 -6 -18 0 -18 2 2 21 16 17 34 13
34 -7z m4065 13 c3 -6 -1 -7 -9 -4 -18 7 -21 14 -7 14 6 0 13 -4 16 -10z
m-605 -47 c0 -7 -5 -13 -11 -13 -5 0 -7 6 -3 13 4 6 -2 3 -14 -7 -12 -11 -22
-15 -22 -10 0 5 -4 2 -10 -6 -5 -8 -11 -12 -14 -9 -5 5 5 17 47 55 13 13 27 1
27 -23z m-3463 2 c0 -8 -4 -12 -9 -9 -5 3 -6 10 -3 15 9 13 12 11 12 -6z m-44
-10 c-3 -9 -8 -14 -10 -11 -3 3 -2 9 2 15 9 16 15 13 8 -4z m-55 -12 c0 -10 1
-23 3 -29 2 -7 0 -12 -6 -13 -5 -1 -10 12 -11 29 -1 16 2 30 7 30 4 0 7 -8 7
-17z m2356 10 c4 -5 12 -9 17 -9 5 -1 12 -2 17 -3 6 -1 -53 -41 -62 -41 -1 0
-3 14 -3 30 0 28 15 39 31 23z m291 -20 c0 -16 -5 -26 -11 -24 -5 2 -15 6 -21
8 -7 3 -10 10 -6 17 4 6 -1 5 -10 -3 -12 -9 -17 -10 -17 -2 0 11 33 29 56 30
6 1 10 -11 9 -26z m2035 -3 c0 -5 -5 -10 -11 -10 -5 0 -7 5 -4 10 3 6 8 10 11
10 2 0 4 -4 4 -10z m-4645 -10 c3 -5 1 -10 -4 -10 -6 0 -11 5 -11 10 0 6 2 10
4 10 3 0 8 -4 11 -10z m1066 -46 c13 -16 -1 -24 -20 -12 -15 9 -16 15 -7 34 9
20 12 21 15 6 2 -9 7 -22 12 -28z m1325 26 c8 0 14 -4 14 -8 0 -12 -66 -9 -77
2 -4 5 -3 6 3 3 7 -4 18 0 25 9 8 10 15 12 17 5 2 -6 10 -11 18 -11z m52 8 c9
-9 12 -9 12 0 0 7 9 12 20 12 17 0 18 -3 8 -19 -6 -10 -19 -17 -27 -16 -9 2
-22 4 -28 4 -7 1 -13 8 -13 16 0 18 12 19 28 3z m1000 -2 c-7 -8 -15 -12 -17
-11 -5 6 10 25 20 25 5 0 4 -6 -3 -14z m94 -16 c6 0 5 7 -3 18 -12 15 -12 16
1 6 8 -6 23 -10 32 -9 9 2 23 -4 30 -13 11 -15 11 -15 -2 -6 -13 9 -21 10 -47
5 -5 -1 -3 -5 4 -9 9 -6 7 -11 -6 -19 -11 -7 -23 -8 -32 -2 -12 8 -12 10 0 18
9 6 10 11 2 15 -6 4 -11 13 -11 19 0 7 5 4 11 -5 5 -10 15 -18 21 -18z m-972
1 c0 -4 -16 -8 -35 -9 -36 -3 -49 13 -17 20 21 5 52 -2 52 -11z m2275 10 c-9
-8 -36 -10 -30 -2 2 4 11 8 20 8 8 0 13 -3 10 -6z m-3720 -82 c4 -6 4 -13 1
-16 -7 -7 -46 26 -46 39 0 10 36 -8 45 -23z m298 14 c-6 -16 -5 -17 13 -4 18
14 18 14 1 -5 -15 -16 -19 -17 -27 -4 -6 9 -5 17 3 22 17 11 17 10 10 -9z m44
-10 c-4 -3 1 -12 11 -19 15 -12 15 -12 -5 -7 -13 3 -23 9 -23 12 0 9 11 21 18
21 3 0 2 -3 -1 -7z m60 -22 c0 -11 -4 -18 -8 -15 -4 2 -9 -2 -12 -8 -2 -7 -7
-10 -11 -7 -4 4 0 13 8 22 8 8 12 17 9 21 -4 3 -1 6 5 6 6 0 10 -9 9 -19z
m1755 -33 c-7 -7 -12 -8 -12 -2 0 6 3 14 7 17 3 4 9 5 12 2 2 -3 -1 -11 -7
-17z m85 -4 c-8 -8 -48 -13 -43 -6 2 4 14 8 26 9 12 1 20 0 17 -3z m573 -14
c0 -5 -5 -10 -11 -10 -5 0 -7 5 -4 10 3 6 8 10 11 10 2 0 4 -4 4 -10z m-2909
-32 c11 -21 11 -22 -4 -9 -10 7 -17 17 -17 22 0 15 9 10 21 -13z m-1066 -56
c-3 -3 -11 0 -18 7 -9 10 -8 11 6 5 10 -3 15 -9 12 -12z m1185 -4 c0 -6 -6 -5
-15 2 -8 7 -15 14 -15 16 0 2 7 1 15 -2 8 -4 15 -11 15 -16z m3532 -12 c7 4 8
2 4 -4 -4 -6 -13 -9 -21 -5 -8 3 -15 -1 -15 -8 0 -7 -3 -9 -6 -6 -4 4 -1 14 7
23 8 10 15 12 17 5 2 -6 9 -8 14 -5z m-1418 -11 c-7 -18 -20 -19 -30 -3 -4 6
-3 8 4 4 6 -3 13 -2 17 4 9 15 15 12 9 -5z m1661 -14 c3 -5 0 -13 -6 -17 -7
-4 -9 -3 -5 4 3 5 0 13 -6 15 -9 4 -10 6 -1 6 6 1 14 -3 18 -8z m-5018 -23
c-3 -8 -6 -5 -6 6 -1 11 2 17 5 13 3 -3 4 -12 1 -19z m2023 -48 c0 -5 -2 -10
-4 -10 -3 0 -8 5 -11 10 -3 6 -1 10 4 10 6 0 11 -4 11 -10z m2524 2 c3 -5 -1
-9 -9 -9 -8 0 -12 4 -9 9 3 4 7 8 9 8 2 0 6 -4 9 -8z m-1429 -11 c3 -5 2 -12
-3 -15 -5 -3 -9 1 -9 9 0 17 3 19 12 6z m-2995 -11 c0 -5 -2 -10 -4 -10 -3 0
-8 5 -11 10 -3 6 -1 10 4 10 6 0 11 -4 11 -10z m3080 6 c0 -3 -4 -8 -10 -11
-5 -3 -10 -1 -10 4 0 6 5 11 10 11 6 0 10 -2 10 -4z m657 -10 c0 -8 -5 -14
-11 -13 -6 1 -10 -4 -8 -11 1 -7 -9 -17 -23 -22 -17 -7 -23 -15 -19 -27 3 -10
-1 -7 -10 7 -14 23 -13 26 10 38 13 7 24 17 24 23 0 6 4 8 9 4 5 -3 12 -1 16
5 8 14 12 13 12 -4z m479 5 c-6 -9 -46 -22 -46 -15 0 3 10 9 23 14 29 11 29
11 23 1z m-1256 -21 c0 -5 -5 -10 -11 -10 -5 0 -7 5 -4 10 3 6 8 10 11 10 2 0
4 -4 4 -10z m1260 -4 c0 -3 -7 -12 -16 -20 -14 -14 -20 -31 -23 -58 -1 -5 -4
-7 -8 -7 -5 1 -10 0 -13 -1 -63 -24 -36 45 31 77 29 14 29 14 29 9z m-2656
-17 c26 -12 43 -39 25 -39 -5 0 -12 7 -15 15 -4 8 -12 15 -19 15 -8 0 -17 5
-20 10 -8 13 -2 13 29 -1z m1371 -17 c-3 -3 -11 0 -18 7 -9 10 -8 11 6 5 10
-3 15 -9 12 -12z m1990 -53 c-1 -37 -6 -54 -16 -57 -11 -3 -11 -2 1 7 11 8 12
11 2 11 -7 0 -10 5 -7 10 3 6 0 10 -7 10 -8 0 -6 5 5 11 14 8 16 14 6 25 -6 8
-8 14 -4 14 4 0 2 6 -4 13 -13 17 -2 31 14 17 6 -5 11 -33 10 -61z m-4379 22
c-3 -5 2 -12 11 -16 10 -3 19 -2 21 4 2 5 20 0 41 -11 27 -14 37 -26 37 -44 0
-23 0 -23 -18 -4 -11 11 -26 20 -34 20 -8 0 -13 4 -10 9 3 5 -6 9 -19 10 -57
4 -65 6 -65 13 0 4 8 12 18 17 21 13 25 13 18 2z m1174 -31 c0 -15 -5 -12 -26
11 -19 22 -19 22 4 10 12 -6 22 -16 22 -21z m95 21 c3 -5 2 -12 -3 -15 -5 -3
-9 1 -9 9 0 17 3 19 12 6z m2285 -16 c7 -8 9 -15 6 -15 -4 0 -14 7 -22 15 -9
8 -11 15 -6 15 5 0 15 -7 22 -15z m-2331 -30 c8 0 15 -6 17 -13 1 -7 0 -8 -3
-2 -2 5 -9 10 -14 10 -6 0 -7 -5 -3 -12 4 -7 3 -8 -4 -4 -7 4 -17 17 -22 29
-9 19 -9 20 2 7 7 -8 19 -15 27 -15z m166 5 c3 -5 1 -10 -4 -10 -6 0 -11 5
-11 10 0 6 2 10 4 10 3 0 8 -4 11 -10z m85 0 c0 -5 -5 -10 -11 -10 -5 0 -7 5
-4 10 3 6 8 10 11 10 2 0 4 -4 4 -10z m34 -19 c14 -15 15 -21 4 -27 -7 -4 -10
-3 -5 1 4 5 0 17 -10 27 -9 10 -14 18 -11 18 3 0 13 -9 22 -19z m-234 -5 c0
-2 -8 -10 -17 -17 -16 -13 -17 -12 -4 4 13 16 21 21 21 13z m12 -38 c-6 -6
-12 -6 -17 3 -5 8 -4 10 3 5 7 -4 12 0 13 11 0 12 2 13 6 5 3 -8 1 -18 -5 -24z
m1221 -12 c-10 -7 -27 -16 -37 -20 -16 -5 -17 -4 -6 9 7 8 16 12 21 9 5 -3 12
2 15 10 3 9 10 13 16 10 5 -3 1 -12 -9 -18z m-68 -39 c-6 -14 -40 -31 -57 -28
-5 1 -8 -2 -8 -7 0 -4 -13 -7 -29 -7 -21 -1 -27 3 -23 14 4 11 7 11 10 3 3
-10 7 -10 18 -1 8 6 11 16 7 23 -3 6 -3 8 2 4 4 -4 14 -3 22 3 7 6 13 9 13 6
0 -4 10 -3 23 2 26 10 29 9 22 -12z m1466 14 c7 11 9 11 9 0 0 -10 3 -11 14
-2 12 10 13 8 9 -9 -4 -16 -12 -21 -29 -17 -14 2 -21 0 -17 -6 3 -5 0 -8 -7
-5 -7 2 -15 15 -17 27 -3 21 -1 22 13 10 13 -11 17 -10 25 2z m-1594 -16 c0
-8 -4 -12 -9 -9 -5 3 -6 10 -3 15 9 13 12 11 12 -6z m-23 -27 c-3 -4 -11 -8
-17 -7 -9 0 -9 2 0 5 7 3 9 13 6 22 -4 14 -3 14 5 2 6 -8 8 -18 6 -22z m-677
-10 c-2 -18 4 -24 26 -26 21 -3 27 -9 27 -28 0 -17 -5 -24 -20 -24 -21 0 -28
-24 -10 -35 7 -4 8 -11 1 -18 -6 -8 -4 -16 4 -24 9 -8 16 -9 20 -3 8 13 22 5
35 -21 9 -16 8 -19 -9 -16 -11 2 -24 6 -27 10 -4 4 -20 7 -36 7 -16 0 -28 5
-28 13 0 8 -4 7 -10 -3 -6 -10 -10 -11 -10 -2 0 6 -5 12 -11 12 -5 0 -7 -4 -4
-10 3 -5 1 -10 -4 -10 -6 0 -11 6 -12 13 0 9 -2 9 -6 -1 -4 -10 -9 -9 -20 5
-8 10 -12 12 -8 6 3 -7 1 -13 -4 -13 -6 0 -11 7 -11 15 0 8 -5 15 -11 15 -5 0
-7 -6 -3 -12 5 -9 3 -9 -9 1 -9 7 -14 18 -10 24 3 6 1 7 -6 3 -6 -4 -9 -11 -6
-16 3 -5 1 -11 -5 -15 -5 -3 -10 -2 -10 4 0 5 -14 13 -32 16 -27 6 -29 9 -14
17 9 5 40 12 67 14 40 4 49 2 43 -8 -5 -10 -4 -11 6 -1 12 11 11 15 -5 27 -17
12 -15 13 18 11 36 -1 43 7 38 38 -1 5 3 6 8 3 19 -12 38 5 33 30 -2 14 0 24
7 24 6 0 10 -10 8 -22z m963 14 c0 -4 -10 -9 -22 -9 -18 -2 -20 0 -8 7 18 12
30 13 30 2z m-397 -11 c-4 -3 -10 -9 -13 -12 -3 -4 -10 -1 -17 6 -9 10 -6 13
13 13 14 0 21 -3 17 -7z m24 -15 c0 -8 -6 -12 -15 -9 -11 5 -11 7 0 14 7 5 13
9 14 9 0 0 1 -6 1 -14z m-9 -43 c54 -26 62 -37 37 -47 -17 -6 -20 -26 -4 -26
5 0 7 5 4 11 -4 6 0 9 11 7 11 -2 18 2 17 10 -2 6 2 12 7 12 6 0 10 -4 10 -9
0 -5 9 -7 20 -4 13 4 20 0 20 -9 0 -23 -12 -29 -29 -15 -14 10 -14 10 -3 -4
10 -14 10 -18 -3 -23 -9 -3 -13 -2 -10 3 3 5 0 13 -6 17 -8 4 -9 3 -5 -4 7
-11 -6 -17 -27 -13 -5 1 -6 -3 -3 -8 9 -14 -20 -21 -35 -8 -11 10 -11 9 0 -5
10 -14 9 -17 -6 -21 -10 -3 -6 -4 9 -4 15 1 24 5 22 9 -3 4 0 8 5 8 6 0 11 -4
11 -9 0 -5 8 -8 18 -6 9 1 16 7 15 13 -1 5 7 8 18 5 16 -5 18 -8 7 -14 -7 -5
-8 -9 -2 -9 6 0 13 3 17 6 11 11 104 12 118 2 11 -7 9 -9 -7 -5 -23 5 -24 0
-10 -40 7 -23 28 -33 23 -12 -1 6 5 14 13 16 12 4 12 3 1 -5 -9 -6 -10 -12 -2
-16 5 -4 19 2 31 14 11 11 20 16 20 11 0 -6 -5 -13 -10 -16 -8 -5 -7 -11 1
-21 12 -14 29 -10 29 7 0 6 -5 7 -11 3 -8 -4 -8 0 0 15 7 11 14 21 17 21 3 0
2 -5 -1 -10 -4 -6 -2 -17 4 -24 9 -10 8 -15 -4 -19 -9 -4 -12 -13 -8 -24 5
-15 3 -15 -10 2 -8 11 -19 16 -23 12 -5 -4 -2 -12 5 -16 9 -6 3 -8 -17 -8 -17
1 -28 5 -25 10 2 4 9 5 14 2 5 -4 9 -1 9 4 0 14 -13 14 -28 -1 -7 -7 -12 -8
-12 -2 0 5 -4 3 -9 -5 -11 -17 -41 -24 -41 -10 0 5 -5 9 -10 9 -6 0 -5 -8 2
-20 14 -22 38 -27 39 -7 0 9 2 9 6 0 3 -10 8 -9 20 3 22 21 30 8 9 -15 -15
-16 -33 -23 -105 -37 -8 -1 -21 -11 -30 -21 -9 -9 -12 -14 -7 -10 5 4 16 1 25
-6 14 -11 15 -10 1 7 -14 18 -13 18 10 11 14 -4 28 -12 31 -17 4 -6 9 -6 13 1
4 6 12 11 17 11 6 0 7 -5 4 -10 -10 -15 29 -7 60 14 15 10 24 13 21 7 -5 -7 1
-11 14 -11 12 0 19 -4 16 -8 -3 -5 -15 -8 -28 -7 -30 3 -60 -13 -55 -28 2 -7
-3 -18 -12 -25 -13 -10 -12 -11 11 -3 26 10 26 9 18 -20 -8 -25 -5 -33 16 -51
27 -25 34 -78 9 -78 -8 0 -15 -5 -15 -11 0 -6 -9 -8 -20 -4 -13 4 -20 2 -20
-7 0 -26 -25 -66 -40 -66 -8 1 -19 0 -25 -2 -5 -1 -21 -2 -35 -1 -25 1 -25 2
-23 78 2 43 4 85 6 93 3 12 -5 16 -37 15 l-41 0 -3 73 c-2 47 -7 73 -15 74 -7
0 -23 1 -36 2 -21 1 -25 6 -25 36 -1 20 -6 35 -13 36 -7 1 -20 2 -28 3 -9 0
-15 7 -14 14 1 6 -6 29 -15 50 -16 36 -16 41 -1 64 13 20 19 22 31 12 8 -6 15
-8 15 -3 1 5 3 18 4 29 2 11 6 28 10 38 5 13 2 17 -14 17 -15 0 -21 6 -21 23
0 43 9 43 98 0z m122 13 c28 -5 78 -24 70 -26 -24 -7 -48 -5 -43 4 3 6 1 6 -7
-1 -9 -9 -23 -7 -57 8 -51 22 -67 24 -57 7 4 -7 3 -8 -4 -4 -6 4 -9 13 -6 20
4 10 14 12 42 5 20 -4 48 -10 62 -13z m120 14 c0 -5 -2 -10 -4 -10 -3 0 -8 5
-11 10 -3 6 -1 10 4 10 6 0 11 -4 11 -10z m69 3 c14 10 14 10 3 -5 -11 -13
-23 -16 -50 -9 -2 1 0 6 4 12 4 8 9 8 17 0 7 -7 15 -7 26 2z m-1015 -14 c11
17 53 14 53 -4 0 -12 -3 -12 -15 -2 -17 14 -22 13 -32 -3 -9 -14 -30 -5 -30
13 0 8 3 8 9 -2 6 -9 11 -10 15 -2z m-794 -9 c0 -5 -2 -10 -4 -10 -3 0 -8 5
-11 10 -3 6 -1 10 4 10 6 0 11 -4 11 -10z m1717 -9 c0 -11 -5 -18 -9 -15 -4 3
-5 11 -1 19 7 21 12 19 10 -4z m-942 -19 c5 -13 3 -14 -6 -5 -6 6 -18 9 -25 6
-8 -3 -14 -1 -14 4 0 16 38 12 45 -5z m790 8 c3 -6 -1 -7 -9 -4 -18 7 -21 14
-7 14 6 0 13 -4 16 -10z m686 3 c-11 -4 -11 -7 0 -14 7 -4 10 -11 6 -15 -3 -4
-14 -1 -22 6 -13 11 -13 15 -3 21 7 5 18 8 23 8 6 0 4 -3 -4 -6z m49 -7 c0 -2
-7 -7 -16 -10 -8 -3 -12 -2 -9 4 6 10 25 14 25 6z m-1800 -20 c0 -2 -8 -10
-17 -17 -16 -13 -17 -12 -4 4 13 16 21 21 21 13z m112 -10 c28 0 48 -6 48 -12
0 -7 -23 -11 -65 -10 -36 0 -65 -3 -65 -8 0 -4 -7 -6 -15 -2 -8 3 -15 1 -15
-5 0 -6 -5 -7 -10 -4 -6 4 -16 3 -23 -2 -17 -13 -40 -10 -45 5 -2 8 2 10 14 5
12 -4 15 -3 10 5 -4 7 -2 12 3 12 6 0 11 -5 11 -10 0 -7 7 -7 20 0 11 6 25 8
31 4 7 -4 9 1 5 14 -6 18 -4 20 21 15 15 -3 49 -6 75 -7z m1042 -32 c5 -14 4
-15 -9 -4 -17 14 -19 20 -6 20 5 0 12 -7 15 -16z m260 -9 c-4 -8 -8 -15 -10
-15 -2 0 -4 7 -4 15 0 8 4 15 10 15 5 0 7 -7 4 -15z m-1510 -16 c-3 -5 -10 -7
-15 -3 -5 3 -7 10 -3 15 3 5 10 7 15 3 5 -3 7 -10 3 -15z m1235 -7 c-1 -15 -2
-15 -6 1 -2 9 -9 15 -14 11 -5 -3 -7 -10 -4 -15 3 -5 -1 -6 -10 -3 -14 6 -14
8 2 19 21 16 33 10 32 -13z m38 5 c0 -8 -6 -14 -14 -14 -9 0 -10 4 -2 14 6 7
12 13 14 13 1 0 2 -6 2 -13z m-1457 -6 c0 9 3 10 8 4 8 -12 61 -13 79 -2 6 4
15 2 19 -4 4 -7 3 -9 -4 -5 -6 3 -18 -4 -26 -16 -9 -13 -16 -17 -16 -9 0 11
-5 9 -20 -4 -11 -10 -20 -13 -20 -7 0 7 5 12 10 12 6 0 10 5 10 10 0 6 -11 8
-24 6 -16 -3 -30 2 -38 12 -12 15 -11 16 5 3 14 -11 17 -11 17 0z m1343 -5 c4
-10 1 -13 -8 -9 -8 3 -12 9 -9 14 7 12 11 11 17 -5z m194 -8 c2 -17 0 -19 -7
-8 -5 8 -6 18 -4 22 8 12 10 10 11 -14z m557 10 c-3 -4 -11 -5 -19 -1 -21 7
-19 12 4 10 11 0 18 -5 15 -9z m-2934 -12 c-4 -4 -16 -4 -26 2 -16 9 -14 10 8
9 15 -1 23 -6 18 -11z m160 -17 c0 -10 -3 -19 -7 -20 -57 -7 -90 -3 -89 10 1
11 -6 15 -21 13 -13 -2 -23 2 -23 8 0 7 7 10 15 6 8 -3 15 -2 15 2 0 4 25 5
55 4 46 -3 55 -7 55 -23z m-210 17 c0 -2 -8 -10 -17 -17 -16 -13 -17 -12 -4 4
13 16 21 21 21 13z m-70 -20 c0 -3 -4 -8 -10 -11 -5 -3 -10 -1 -10 4 0 6 5 11
10 11 6 0 10 -2 10 -4z m970 -6 c0 -5 -2 -10 -4 -10 -3 0 -8 5 -11 10 -3 6 -1
10 4 10 6 0 11 -4 11 -10z m2390 6 c0 -2 -7 -7 -16 -10 -8 -3 -12 -2 -9 4 6
10 25 14 25 6z m673 -19 c9 5 9 3 0 -8 -6 -8 -13 -23 -15 -34 -2 -16 3 -20 35
-20 30 -1 35 1 24 10 -14 10 -13 12 2 22 15 9 17 6 19 -25 2 -19 5 -38 7 -42
2 -4 -7 -12 -21 -19 -20 -9 -30 -9 -40 0 -8 6 -14 7 -14 2 0 -5 -7 -10 -15
-10 -10 0 -12 4 -5 12 8 9 6 14 -5 19 -8 3 -15 0 -15 -6 0 -7 -5 -6 -15 2 -12
10 -15 10 -15 0 0 -8 -6 -9 -17 -5 -25 10 -56 7 -80 -8 -6 -4 -14 -3 -18 3 -9
15 -28 12 -19 -2 5 -10 4 -10 -6 -1 -11 10 -16 9 -27 -5 -8 -9 -12 -11 -8 -4
3 6 1 12 -4 12 -6 0 -11 -4 -11 -10 0 -5 -7 -7 -15 -4 -8 4 -15 2 -15 -4 0
-13 -41 -20 -65 -12 -11 4 -34 4 -51 0 -26 -6 -31 -5 -27 7 5 13 3 13 -18 1
-13 -7 -33 -20 -43 -28 -18 -14 -18 -14 -7 7 15 30 14 38 -4 23 -8 -7 -15 -9
-15 -4 0 5 -5 2 -10 -6 -7 -10 -10 -11 -10 -2 0 12 15 21 42 26 7 1 20 6 28
11 13 8 13 7 1 -8 -13 -16 -12 -17 13 -8 14 6 26 7 26 3 0 -4 5 0 11 8 9 12
10 11 5 -4 -7 -19 -6 -19 12 -3 10 9 22 14 25 10 4 -3 7 2 7 13 0 11 3 15 8 9
8 -13 18 -12 52 3 23 10 13 18 -15 12 -5 -1 -8 1 -5 3 3 3 10 6 15 8 6 1 16
10 23 21 11 15 17 16 28 7 8 -6 14 -17 14 -23 0 -6 -7 -3 -14 7 -13 17 -14 17
-20 0 -4 -10 -4 -14 0 -10 4 4 19 -3 33 -15 14 -13 19 -15 12 -5 -12 15 -11
17 8 17 11 0 21 -6 21 -12 0 -9 4 -8 10 2 8 13 10 13 10 1 0 -11 4 -9 15 5 14
18 15 18 8 0 -4 -14 -2 -17 8 -14 8 3 13 11 11 18 -2 11 0 11 12 1 11 -9 16
-9 22 0 5 8 3 9 -6 4 -9 -5 -11 -4 -6 4 6 9 11 9 24 -1 12 -10 14 -10 8 0 -4
7 -2 12 4 12 6 0 8 6 4 13 -6 10 -4 10 7 0 19 -19 29 -16 29 10 0 17 2 19 9 7
6 -8 7 -18 4 -24 -3 -5 -1 -6 5 -2 6 3 9 19 6 34 -3 23 -2 24 7 9 6 -10 15
-14 22 -10z m-2314 -17 c8 0 9 -5 1 -19 -5 -11 -8 -33 -6 -49 3 -28 2 -29 -38
-28 l-41 1 -3 -52 c-3 -51 -4 -53 -33 -53 -25 0 -29 -4 -29 -29 0 -17 -5 -33
-11 -37 -8 -4 -7 -9 2 -15 7 -4 11 -11 8 -14 -10 -9 -39 6 -39 21 0 8 -3 13
-7 13 -20 -3 -26 2 -13 11 11 7 11 10 2 10 -7 0 -11 4 -8 8 2 4 -4 8 -14 8
-15 0 -17 -3 -7 -15 10 -12 9 -13 -10 -2 -13 6 -23 9 -23 5 0 -3 -6 -1 -14 5
-8 6 -18 11 -22 10 -19 -3 -34 1 -34 10 0 5 9 7 20 4 13 -4 20 0 20 9 0 14 11
18 54 19 10 0 16 3 12 6 -3 3 -1 12 5 20 10 11 6 11 -22 0 -19 -7 -45 -13 -59
-12 -14 1 -38 3 -54 3 -38 2 -27 13 18 19 23 3 36 1 36 -7 0 -6 4 -9 10 -5 18
11 -2 35 -26 31 -13 -3 -24 0 -24 5 0 5 5 9 11 9 5 0 7 5 3 12 -4 6 -3 8 4 4
5 -3 12 -3 15 1 2 5 3 3 1 -3 -1 -6 4 -11 11 -11 7 0 11 7 8 14 -4 10 1 13 21
9 23 -4 25 -2 16 13 -5 10 -6 22 -2 26 4 5 2 5 -5 2 -6 -4 -13 -4 -16 0 -2 5
-2 3 -1 -4 4 -16 -13 -26 -21 -13 -4 6 -11 7 -17 4 -7 -4 -8 -2 -4 5 4 6 11 9
15 7 4 -3 8 2 8 10 0 10 -4 11 -11 4 -14 -14 -29 -13 -20 3 4 6 4 9 -1 5 -4
-4 -14 -3 -21 3 -8 6 -21 9 -29 5 -8 -3 -15 -1 -15 5 0 6 22 9 53 8 66 -2 167
-20 167 -29 0 -4 10 -6 23 -6 12 1 28 -2 34 -7 9 -6 15 -4 19 7 3 9 10 16 16
16 5 0 6 -6 2 -12 -6 -9 -3 -9 9 1 9 7 24 10 34 7 14 -6 14 -4 -3 15 l-19 22
29 -19 29 -19 -17 30 c-10 17 -12 22 -3 13 8 -10 19 -18 26 -18z m878 5 c0 -8
-4 -15 -9 -15 -10 0 -11 14 -1 23 9 10 10 9 10 -8z m654 -18 c-10 -9 -11 -8
-5 6 3 10 9 15 12 12 3 -3 0 -11 -7 -18z m-3551 -29 c0 -6 -6 -5 -15 2 -8 7
-15 14 -15 16 0 2 7 1 15 -2 8 -4 15 -11 15 -16z m2960 14 c0 -4 -13 -9 -30
-10 -16 -1 -30 2 -30 8 0 5 14 10 30 10 17 0 30 -4 30 -8z m1390 4 c0 -2 -7
-7 -16 -10 -8 -3 -12 -2 -9 4 6 10 25 14 25 6z m-4304 -28 l19 -21 -27 18
c-29 18 -34 25 -20 25 5 0 17 -10 28 -22z m462 10 c17 -1 32 -4 33 -7 0 -3 2
-14 4 -23 5 -28 -12 -31 -29 -6 -9 12 -16 17 -16 11 0 -6 -9 -13 -21 -16 -17
-5 -20 -2 -16 14 3 10 0 22 -5 26 -7 3 -8 1 -4 -5 4 -7 -1 -10 -14 -9 -11 1
-20 5 -20 10 0 4 -3 6 -7 4 -5 -3 -17 -1 -28 3 -12 5 3 6 35 4 30 -3 70 -5 88
-6z m1167 -8 c3 -6 -1 -7 -9 -4 -18 7 -21 14 -7 14 6 0 13 -4 16 -10z m-835
-26 c0 -2 -7 -4 -15 -4 -8 0 -15 4 -15 10 0 5 7 7 15 4 8 -4 15 -8 15 -10z
m466 -3 c-3 -4 1 -8 9 -8 8 0 12 4 9 9 -7 11 7 10 26 -2 12 -8 12 -10 1 -10
-8 0 -11 -3 -8 -6 4 -4 12 -2 20 4 15 13 60 4 51 -10 -3 -5 -12 -7 -19 -4 -7
2 -16 2 -19 -2 -9 -9 -46 -10 -40 -1 2 4 -5 7 -16 6 -23 -2 -23 -2 -9 -30 9
-20 9 -20 -4 -4 -8 9 -20 17 -27 17 -10 0 -9 4 1 17 13 15 12 15 -7 5 -11 -6
-29 -9 -40 -7 -10 2 -25 4 -31 4 -7 1 -13 6 -13 12 0 5 5 7 10 4 6 -4 18 -1
27 7 12 9 15 9 9 0 -5 -9 -1 -11 16 -8 13 3 29 5 36 5 7 1 10 6 6 13 -4 7 -3
8 5 4 6 -4 9 -11 7 -15z m-791 -11 c3 -5 1 -10 -4 -10 -6 0 -11 5 -11 10 0 6
2 10 4 10 3 0 8 -4 11 -10z m380 -28 c-6 -8 -35 12 -35 24 0 11 4 10 18 -3 10
-10 18 -19 17 -21z m282 21 c5 -13 -70 -23 -78 -11 -3 6 -9 9 -13 9 -18 -3
-26 0 -26 7 0 12 113 7 117 -5z m1666 10 c-7 -2 -9 -11 -6 -19 3 -7 9 -12 13
-9 5 3 12 0 16 -6 4 -8 3 -9 -4 -5 -7 4 -12 0 -13 -11 0 -16 -1 -16 -9 2 -5
11 -9 16 -9 12 -1 -4 -11 -2 -23 4 -21 11 -22 11 -10 -4 11 -13 10 -17 -7 -26
-26 -14 -28 -14 -35 5 -6 15 -4 15 10 3 15 -12 17 -12 12 1 -7 20 26 55 54 57
13 0 18 -1 11 -4z m47 -13 c10 0 22 -4 25 -10 8 -12 3 -13 -29 0 -14 5 -26 15
-25 22 0 10 2 10 6 1 2 -7 13 -13 23 -13z m-1390 -6 c0 -8 -19 -13 -24 -6 -3
5 1 9 9 9 8 0 15 -2 15 -3z m1455 -24 c3 -6 -1 -7 -9 -4 -10 4 -16 1 -16 -7 0
-7 -3 -10 -6 -6 -7 7 4 27 16 27 5 0 12 -4 15 -10z m-1595 -20 c0 -5 -2 -10
-4 -10 -3 0 -8 5 -11 10 -3 6 -1 10 4 10 6 0 11 -4 11 -10z m1360 0 c0 -5 -2
-10 -4 -10 -3 0 -8 5 -11 10 -3 6 -1 10 4 10 6 0 11 -4 11 -10z m1085 0 c-3
-5 0 -10 7 -10 10 0 9 -3 -2 -9 -8 -6 -18 -7 -23 -4 -4 3 -8 -1 -6 -8 3 -26
-1 -37 -17 -43 -8 -3 -12 -2 -9 4 3 6 1 10 -4 10 -6 0 -11 -4 -11 -10 0 -5 -5
-9 -11 -7 -6 1 -13 -5 -14 -14 -2 -11 5 -16 21 -16 13 0 24 4 24 9 0 5 5 6 10
3 6 -3 10 -13 10 -21 0 -8 -4 -12 -10 -9 -5 3 -10 1 -10 -4 0 -6 -5 -11 -11
-11 -5 0 -7 6 -3 13 4 6 -3 3 -16 -8 -13 -11 -20 -14 -16 -7 4 6 2 12 -3 12
-6 0 -10 15 -9 33 2 23 -1 31 -11 29 -8 -2 -11 3 -8 11 3 8 -2 13 -12 13 -9
-1 -17 3 -18 9 -2 5 13 9 32 8 53 -1 57 -2 50 -13 -3 -5 -12 -7 -20 -3 -8 3
-15 1 -15 -5 0 -6 6 -9 13 -8 24 3 36 17 30 34 -6 15 -5 16 13 2 10 -8 16 -10
12 -6 -5 5 2 15 15 22 29 16 29 16 22 4z m-633 -7 c-10 -4 -10 -8 0 -21 12
-15 11 -16 -4 -3 -19 14 -15 32 5 30 8 0 8 -2 -1 -6z m-3060 -20 c-6 -3 -10
-8 -8 -12 3 -4 -5 -7 -17 -8 -12 0 -16 1 -9 4 6 3 9 10 6 15 -4 6 -2 8 4 4 6
-3 14 -1 17 5 4 5 10 7 14 3 3 -4 0 -9 -7 -11z m84 -12 c-4 -5 9 -8 29 -7 23
2 35 -1 35 -9 0 -10 9 -11 35 -5 19 4 37 4 40 0 3 -5 25 -7 49 -4 41 4 44 3
39 -17 -6 -20 -7 -20 -18 -5 -10 13 -14 14 -22 4 -6 -7 -9 -22 -7 -33 3 -22
-14 -37 -31 -27 -15 10 -39 8 -47 -2 -4 -6 -14 -4 -24 5 -10 8 -15 9 -12 4 4
-6 -4 -12 -17 -13 -13 -1 -27 3 -30 8 -3 6 -12 10 -18 10 -7 0 -6 -4 3 -11 12
-9 12 -10 1 -7 -27 8 -22 26 9 30 24 4 30 1 25 -10 -4 -12 -3 -12 9 -3 21 18
86 23 104 9 13 -10 14 -10 8 0 -4 6 -3 12 3 12 5 0 8 8 7 17 -3 17 -59 25
-159 23 -35 -1 -37 1 -27 20 6 11 13 20 16 20 3 0 3 -4 0 -9z m3444 -20 c0 -5
-8 -11 -17 -15 -10 -3 -24 -9 -30 -12 -7 -3 -13 -1 -13 4 0 5 11 13 25 16 16
4 23 11 19 18 -4 7 -3 8 4 4 7 -4 12 -11 12 -15z m-2680 -26 c0 0 -11 -2 -24
-3 -19 -1 -23 2 -19 17 5 18 6 18 24 3 10 -9 19 -17 19 -17z m2073 28 c-7 -2
-19 -2 -25 0 -7 3 -2 5 12 5 14 0 19 -2 13 -5z m1201 -9 c3 -8 2 -12 -4 -9 -6
3 -10 10 -10 16 0 14 7 11 14 -7z m66 6 c5 8 10 10 10 4 0 -6 -7 -17 -14 -24
-11 -8 -12 -18 -6 -36 8 -20 7 -24 -10 -24 -18 0 -24 -12 -23 -47 1 -16 -10
-16 -25 -1 -12 12 -16 0 -15 -39 1 -19 -14 -16 -22 4 -3 10 -1 19 4 21 7 2 5
14 -4 32 -18 34 -18 40 -4 40 5 0 8 -4 5 -9 -3 -5 1 -11 9 -15 25 -9 17 4 -22
41 -37 33 -37 34 -9 23 24 -9 27 -8 22 5 -4 12 -2 13 12 6 20 -10 58 -8 69 4
5 4 3 5 -4 1 -6 -3 -15 -1 -19 5 -4 8 -3 9 4 5 7 -4 12 -1 12 6 0 9 3 9 10 -2
9 -13 11 -13 20 0z m-3000 -19 c0 9 3 10 8 3 4 -5 24 -11 46 -11 21 0 42 -6
46 -13 5 -8 34 -12 79 -12 68 0 72 -1 69 -22 -2 -15 -10 -21 -31 -21 -15 -1
-33 5 -39 12 -8 10 -14 10 -23 3 -9 -8 -15 -8 -20 0 -4 7 -12 7 -26 0 -13 -7
-25 -7 -38 -1 -10 6 -22 7 -26 3 -14 -14 -59 2 -50 19 2 3 -12 4 -30 3 -26 -2
-37 2 -45 16 -13 25 -13 27 5 27 8 0 15 -4 15 -9 0 -4 5 -8 10 -8 6 0 9 3 9 8
-4 21 3 23 21 7 15 -14 20 -15 20 -4z m-1056 1 c3 -5 -1 -9 -9 -9 -8 0 -12 4
-9 9 3 4 7 8 9 8 2 0 6 -4 9 -8z m886 -2 c-13 -8 -13 -10 2 -10 9 0 20 5 23
10 9 14 36 12 33 -2 -5 -23 -22 -37 -30 -24 -5 6 -8 7 -8 1 0 -6 -30 -11 -67
-12 -38 -1 -78 -4 -90 -7 -13 -2 -23 -1 -23 5 0 5 0 12 0 17 0 11 53 10 69 -2
12 -9 13 -8 6 3 -6 11 -3 13 13 9 13 -4 22 -1 22 5 0 7 8 3 17 -8 12 -15 14
-16 10 -3 -6 16 5 26 28 27 6 0 3 -4 -5 -9z m2425 0 c3 -6 -1 -7 -9 -4 -18 7
-21 14 -7 14 6 0 13 -4 16 -10z m245 -16 c0 -8 -4 -12 -10 -9 -5 3 -10 10 -10
16 0 5 5 9 10 9 6 0 10 -7 10 -16z m-515 -4 c3 -5 14 -10 23 -10 15 0 15 2 2
10 -8 5 -10 10 -5 10 6 0 16 -4 23 -9 11 -6 10 -10 -5 -16 -10 -5 -21 -7 -25
-7 -5 1 -8 -8 -8 -20 0 -13 4 -18 8 -13 4 6 16 11 27 11 12 0 19 6 17 14 -1
10 3 9 12 -4 14 -17 13 -21 -8 -37 -13 -11 -28 -19 -32 -19 -4 0 1 7 12 16 18
14 18 15 -3 4 -13 -6 -23 -14 -23 -19 0 -16 13 -20 31 -10 21 11 24 2 9 -21
-9 -13 -10 -13 -10 0 0 13 -1 13 -10 0 -7 -10 -10 -11 -10 -2 0 7 -12 17 -26
22 -14 6 -22 14 -19 20 4 6 -1 7 -11 3 -11 -4 -13 -8 -6 -11 7 -2 9 -8 6 -13
-3 -6 -11 -5 -20 2 -8 6 -17 9 -21 5 -3 -3 -1 -6 6 -6 7 0 9 -5 6 -11 -5 -7
-14 -4 -28 8 l-22 18 19 -22 c20 -24 10 -32 -14 -10 -12 10 -12 9 -1 -5 11
-15 11 -18 -3 -18 -9 0 -16 -4 -16 -10 0 -6 9 -6 24 0 13 5 27 6 30 3 3 -4 6
0 6 7 0 7 3 10 7 7 3 -4 12 1 20 11 8 9 12 12 9 5 -4 -6 -2 -14 4 -18 5 -3 10
1 10 9 0 10 6 13 17 9 11 -4 12 -8 5 -11 -7 -2 -12 -8 -12 -14 0 -7 5 -7 13
-1 16 12 43 10 40 -3 -1 -5 7 -10 17 -10 19 0 22 16 5 28 -6 5 -6 11 2 19 6 6
9 19 6 28 -4 13 -3 14 5 1 7 -9 7 -19 2 -25 -6 -8 -2 -20 12 -35 16 -17 19
-27 11 -39 -6 -9 -14 -31 -17 -48 -4 -17 -18 -43 -32 -58 -13 -14 -22 -30 -19
-35 3 -5 1 -11 -4 -14 -5 -3 -14 8 -21 24 -7 16 -21 32 -32 36 -14 4 -17 11
-12 22 13 31 16 80 5 86 -10 6 -15 -6 -12 -26 3 -18 -21 -6 -26 13 -9 32 -48
21 -48 -14 -1 -15 5 -33 12 -39 10 -8 8 -16 -12 -40 -14 -16 -22 -35 -19 -40
5 -7 2 -8 -5 -4 -7 5 -18 0 -26 -10 -13 -17 -14 -16 -15 19 0 33 -3 37 -25 37
-21 0 -25 5 -25 31 0 17 -4 28 -10 24 -5 -3 -10 3 -10 14 0 13 -7 21 -16 21
-10 0 -14 6 -10 15 5 13 -5 20 -26 16 -5 0 -8 4 -8 9 0 6 -11 10 -24 10 -21 0
-23 3 -17 29 3 16 16 42 29 56 19 21 26 24 38 15 8 -7 14 -8 14 -3 0 6 23 9
56 6 41 -3 54 -1 48 8 -4 8 -3 9 4 5 18 -11 52 -16 52 -7 0 4 17 8 38 9 20 2
39 7 40 12 5 13 19 13 27 0z m399 -6 c3 -7 -3 -10 -15 -7 -26 7 -32 19 -9 19
11 0 22 -6 24 -12z m-3574 -9 c0 -1 -12 -2 -26 -2 -17 0 -22 2 -13 7 10 7 39
3 39 -5z m1689 1 c9 -6 7 -138 -3 -154 -3 -5 -19 -7 -35 -4 -17 2 -28 8 -25
13 3 5 -2 12 -11 15 -9 4 -14 12 -11 19 6 16 -27 48 -39 38 -4 -5 -6 -1 -3 8
4 9 1 16 -7 16 -8 0 -14 -3 -13 -6 2 -23 -4 -22 -17 3 -25 48 -21 53 46 54 33
0 63 2 66 5 5 6 38 1 52 -7z m1792 -23 c-8 -15 -10 -15 -11 -2 0 17 10 32 18
25 2 -3 -1 -13 -7 -23z m53 -3 c-6 -6 -10 -3 -10 10 0 13 4 16 10 10 7 -7 7
-13 0 -20z m-33 -7 c-12 -20 -14 -14 -5 12 4 9 9 14 11 11 3 -2 0 -13 -6 -23z
m-3524 11 c-3 -3 -12 -4 -19 -1 -8 3 -5 6 6 6 11 1 17 -2 13 -5z m3613 -4 c0
-5 -2 -10 -4 -10 -3 0 -8 5 -11 10 -3 6 -1 10 4 10 6 0 11 -4 11 -10z m137 -6
c13 4 25 0 34 -11 11 -15 11 -16 -1 -5 -21 19 -32 14 -18 -8 13 -20 40 -23 66
-6 7 4 16 5 19 2 4 -3 2 -6 -4 -6 -5 0 -10 -16 -10 -35 0 -19 4 -35 9 -35 9 0
-11 -41 -26 -51 -5 -4 -6 -12 -2 -18 5 -7 1 -8 -10 -4 -14 5 -16 3 -11 -11 5
-13 1 -19 -13 -23 -11 -3 -17 -9 -15 -14 3 -4 -3 -12 -12 -18 -10 -6 -14 -11
-9 -11 5 0 -7 -16 -28 -36 -21 -21 -33 -40 -29 -47 5 -9 3 -9 -8 0 -12 10 -18
10 -28 0 -9 -9 -14 -9 -21 3 -6 8 -8 21 -5 27 2 7 -7 16 -20 19 -14 3 -23 9
-21 13 7 11 -26 71 -39 71 -7 0 -15 9 -18 20 -3 12 -14 20 -26 20 -19 0 -21 5
-20 50 1 28 5 47 8 43 7 -11 22 -10 39 0 7 5 14 2 18 -8 6 -14 8 -14 20 2 12
16 15 16 23 3 9 -13 12 -13 23 -1 11 11 11 13 -1 6 -9 -5 -12 -4 -7 3 4 7 2
12 -5 12 -7 0 -9 3 -6 7 4 3 19 -4 34 -18 14 -13 24 -19 21 -14 -3 6 0 16 8
23 8 7 14 9 14 3 0 -10 31 -8 65 4 19 6 19 6 2 -8 -15 -13 -15 -15 -2 -20 8
-4 14 -1 12 5 -1 6 4 13 12 16 9 3 11 0 6 -8 -6 -9 -4 -11 5 -5 10 6 10 10 -2
19 -8 6 -15 15 -16 21 0 5 -6 11 -13 14 -6 2 -9 -1 -5 -7 4 -6 -3 -16 -14 -22
-15 -8 -20 -8 -18 1 2 6 -3 14 -11 17 -9 3 -11 0 -6 -8 6 -9 4 -11 -4 -5 -9 5
-10 10 -2 18 8 8 14 8 23 -1 7 -7 17 -12 22 -12 6 0 5 5 -2 12 -7 7 -12 19
-12 28 0 12 2 12 9 1 5 -8 16 -11 28 -7z m307 4 c-3 -4 -9 -8 -15 -8 -5 0 -9
4 -9 8 0 5 7 9 15 9 8 0 12 -4 9 -9z m-4033 -35 c-9 -16 -10 -14 -11 12 0 21
3 26 11 18 8 -8 8 -16 0 -30z m1362 -1 c-3 -15 -6 -36 -8 -46 -1 -11 -7 -22
-13 -24 -7 -2 -12 -12 -12 -23 0 -10 -6 -19 -14 -19 -10 0 -13 -7 -11 -21 3
-15 0 -19 -10 -15 -8 3 -15 1 -15 -5 0 -6 -5 -7 -12 -3 -7 5 -9 1 -6 -13 11
-42 -8 -45 -38 -7 -16 20 -43 51 -60 69 -29 30 -30 34 -13 38 10 3 19 0 20 -6
0 -8 2 -8 6 0 3 10 10 10 26 1 20 -10 21 -10 8 6 -13 16 -12 16 13 5 20 -10
29 -10 38 -1 19 19 32 14 17 -5 -13 -16 -12 -17 2 -5 9 7 21 11 25 10 5 -2 10
2 11 7 1 6 -5 9 -13 7 -8 -2 -14 2 -14 8 0 5 -3 9 -7 8 -5 -2 -8 2 -8 7 0 6 7
9 17 9 9 -1 14 4 12 11 -7 16 23 28 32 13 5 -7 2 -8 -6 -3 -9 5 -11 4 -6 -4
10 -15 29 -3 22 14 -5 15 3 27 15 20 4 -3 5 -18 2 -33z m2207 18 c0 -5 -2 -10
-4 -10 -3 0 -8 5 -11 10 -3 6 -1 10 4 10 6 0 11 -4 11 -10z m487 -5 c-4 -8 -2
-17 3 -20 5 -3 0 -21 -12 -41 -11 -19 -21 -45 -22 -56 -2 -35 -52 -33 -85 4
-23 26 -26 35 -17 54 6 12 14 20 17 18 4 -2 9 3 12 11 4 10 1 12 -11 8 -14 -5
-15 -4 -4 8 7 8 32 13 62 13 27 0 47 3 44 8 -3 4 0 8 6 8 7 0 10 -7 7 -15z
m-3964 -19 c-4 -7 -1 -6 9 2 12 10 17 10 27 -1 6 -8 9 -16 6 -19 -3 -2 1 -5 9
-5 8 0 12 6 9 13 -3 9 2 11 17 7 16 -4 18 -8 8 -14 -10 -7 -10 -9 0 -9 8 0 12
-18 12 -55 l0 -55 -45 3 c-25 1 -47 -2 -49 -8 -2 -5 -7 -1 -11 10 -3 11 -10
27 -14 35 -5 8 -7 29 -6 45 2 17 3 40 4 52 1 16 6 21 16 17 8 -4 12 -11 8 -18z
m1327 1 c0 -8 -3 -8 -9 1 -6 10 -10 8 -14 -9 -5 -19 -9 -21 -19 -11 -9 9 -8
15 7 26 21 15 35 12 35 -7z m-525 3 c-2 -4 9 -7 26 -8 19 0 27 3 23 10 -4 7
-2 8 4 4 9 -5 9 -13 0 -29 -10 -19 -9 -21 4 -9 13 10 18 10 24 1 4 -8 3 -9 -4
-5 -7 4 -12 2 -12 -3 0 -6 14 -9 33 -7 26 4 34 0 43 -19 9 -19 9 -25 -2 -29
-7 -3 -16 -17 -20 -31 -6 -25 -44 -37 -44 -14 0 8 -5 8 -15 -1 -12 -10 -15
-10 -15 0 0 7 -6 18 -14 24 -11 8 -13 21 -7 54 8 39 -1 58 -12 30 -4 -10 -8
-9 -16 2 -7 10 -11 11 -11 3 0 -7 -7 -10 -15 -7 -15 6 -16 25 -2 35 11 8 37 7
32 -1z m344 -18 c7 -2 11 3 9 10 -4 8 3 14 18 14 13 1 24 -2 24 -8 0 -5 -4 -7
-9 -4 -5 3 -14 -1 -20 -8 -8 -10 -9 -16 -1 -21 12 -8 4 -25 -13 -25 -8 0 -8 3
2 9 8 5 9 11 3 15 -6 3 -14 2 -17 -4 -5 -8 -11 -7 -22 1 -12 10 -19 10 -35 0
-11 -7 -17 -8 -14 -3 3 6 0 13 -6 15 -7 3 -3 6 10 6 16 1 21 5 16 14 -5 7 0 6
11 -3 17 -14 18 -13 12 5 -6 17 -5 18 6 5 6 -8 18 -16 26 -18z m2391 8 c-6
-11 -13 -20 -16 -20 -2 0 0 9 6 20 6 11 13 20 16 20 2 0 0 -9 -6 -20z m-2590
-1 c0 -13 -28 -18 -33 -6 -3 7 3 13 14 13 11 0 19 -3 19 -7z m2990 -175 c0 -8
-5 -12 -10 -9 -6 4 -8 11 -5 16 9 14 15 11 15 -7z m-3193 -2456 c-3 -10 10
-12 53 -10 l58 4 0 -39 c-1 -66 1 -70 25 -70 48 -1 57 -4 57 -18 0 -8 5 -15
11 -15 5 0 7 -4 4 -10 -3 -5 -1 -10 5 -10 6 0 8 -5 5 -10 -3 -6 -4 -18 -1 -28
5 -14 15 -17 56 -15 l50 3 0 -55 0 -55 43 0 42 0 -25 -19 c-13 -11 -28 -17
-32 -15 -4 3 -8 0 -8 -6 0 -7 -7 -9 -16 -6 -8 3 -12 2 -9 -4 3 -6 1 -11 -4
-11 -13 -2 -22 -4 -41 -12 -26 -9 -91 -16 -86 -8 3 4 -11 5 -31 3 -27 -3 -34
-1 -28 8 5 9 2 10 -13 6 -14 -5 -27 0 -43 16 -12 13 -19 16 -14 8 4 -8 -9 2
-29 23 -20 21 -34 42 -31 47 3 4 -2 11 -11 14 -13 5 -14 9 -3 22 10 12 10 15
-1 12 -10 -2 -14 9 -15 39 0 24 -2 43 -6 43 -7 0 -4 64 5 78 4 7 4 17 1 22 -3
6 -1 10 5 10 6 0 8 5 5 10 -3 6 -1 10 5 10 6 0 9 4 6 9 -6 10 3 41 11 41 3 0
3 -6 0 -12z m2498 -126 c-3 -8 0 -21 7 -29 9 -11 9 -16 -3 -24 -8 -5 -9 -9 -3
-9 7 0 14 -13 16 -30 3 -16 1 -30 -2 -30 -4 0 -5 -10 -3 -23 3 -14 -2 -29 -11
-36 -9 -8 -16 -21 -17 -30 0 -10 -2 -12 -6 -3 -2 6 -10 9 -16 5 -8 -4 -8 -1 1
9 10 12 10 17 -1 26 -14 12 -17 69 -4 89 4 6 4 14 -1 17 -11 7 -14 76 -3 76 5
0 8 8 6 18 -5 30 8 36 27 12 10 -13 16 -30 13 -38z m-243 -137 c-2 -19 -6 -35
-8 -35 -2 0 -4 16 -4 35 0 19 4 35 8 35 4 0 6 -16 4 -35z"/>
<path d="M3770 5049 c0 -5 5 -7 10 -4 6 3 10 8 10 11 0 2 -4 4 -10 4 -5 0 -10
-5 -10 -11z"/>
<path d="M4411 4626 c-8 -10 -9 -16 -1 -21 6 -4 9 -1 8 7 -2 7 3 12 10 10 8
-1 11 2 7 8 -8 13 -10 13 -24 -4z"/>
<path d="M3189 4444 c-7 -9 -6 -12 6 -10 22 3 40 23 20 23 -8 0 -20 -6 -26
-13z"/>
<path d="M2976 4255 c-3 -8 -1 -15 4 -15 6 0 10 7 10 15 0 8 -2 15 -4 15 -2 0
-6 -7 -10 -15z"/>
<path d="M3130 4185 c-18 -14 -29 -25 -24 -25 6 0 15 5 22 12 9 9 15 8 25 -7
11 -14 16 -15 22 -5 5 8 4 11 -2 7 -6 -4 -13 0 -16 7 -4 11 1 14 19 12 13 -2
27 -6 32 -11 4 -4 0 -5 -8 0 -8 5 -12 5 -8 0 4 -4 2 -15 -4 -24 -10 -13 -10
-14 2 -3 15 13 34 17 26 4 -2 -4 4 -8 14 -9 11 -1 22 2 25 8 3 5 -1 6 -9 3
-10 -4 -20 5 -31 26 -13 24 -19 29 -30 20 -9 -8 -14 -8 -17 0 -2 6 -18 0 -38
-15z"/>
<path d="M2950 4155 c0 -7 30 -13 34 -7 3 4 -4 9 -15 9 -10 1 -19 0 -19 -2z"/>
<path d="M3015 4150 c3 -5 8 -10 11 -10 2 0 4 5 4 10 0 6 -5 10 -11 10 -5 0
-7 -4 -4 -10z"/>
<path d="M3275 4150 c3 -5 8 -10 11 -10 2 0 4 5 4 10 0 6 -5 10 -11 10 -5 0
-7 -4 -4 -10z"/>
<path d="M3030 4106 c0 -2 8 -10 18 -17 15 -13 16 -12 3 4 -13 16 -21 21 -21
13z"/>
<path d="M3115 4101 c-3 -5 -2 -12 3 -15 5 -3 9 1 9 9 0 17 -3 19 -12 6z"/>
<path d="M3196 3951 c-3 -4 4 -17 17 -27 22 -19 22 -19 4 2 -9 11 -14 24 -10
27 3 4 4 7 0 7 -3 0 -8 -4 -11 -9z"/>
<path d="M3176 3912 c-2 -4 -1 -14 4 -22 7 -11 9 -9 7 8 -1 24 -3 26 -11 14z"/>
<path d="M1010 4209 c0 -5 5 -7 10 -4 6 3 10 8 10 11 0 2 -4 4 -10 4 -5 0 -10
-5 -10 -11z"/>
<path d="M4815 4120 c-3 -5 -1 -10 4 -10 6 0 11 5 11 10 0 6 -2 10 -4 10 -3 0
-8 -4 -11 -10z"/>
<path d="M4480 4081 c-8 -6 -18 -7 -24 -4 -5 3 -6 1 -2 -5 5 -9 13 -9 27 -2
10 6 19 13 19 15 0 7 -3 6 -20 -4z"/>
<path d="M2215 4070 c3 -5 8 -10 11 -10 2 0 4 5 4 10 0 6 -5 10 -11 10 -5 0
-7 -4 -4 -10z"/>
<path d="M2203 4041 c0 -11 5 -18 9 -15 4 3 5 11 1 19 -7 21 -12 19 -10 -4z"/>
<path d="M2287 4028 c2 -5 -4 -8 -13 -8 -10 0 -14 -3 -11 -7 4 -3 2 -12 -3
-19 -8 -9 -5 -12 14 -10 13 0 22 4 20 7 -2 3 5 15 16 26 18 21 18 21 -5 19
-13 0 -21 -4 -18 -8z"/>
<path d="M2316 4003 c-6 -14 -5 -15 5 -6 7 7 10 15 7 18 -3 3 -9 -2 -12 -12z"/>
<path d="M2230 3992 c0 -7 -3 -11 -7 -9 -5 1 -9 -2 -11 -8 -2 -5 1 -11 6 -13
11 -3 26 28 17 36 -3 3 -5 0 -5 -6z"/>
<path d="M3286 4077 c3 -10 9 -15 12 -12 3 3 0 11 -7 18 -10 9 -11 8 -5 -6z"/>
<path d="M4230 3979 c0 -5 5 -7 10 -4 6 3 10 8 10 11 0 2 -4 4 -10 4 -5 0 -10
-5 -10 -11z"/>
<path d="M3733 3919 c-6 -6 -17 -11 -24 -13 -31 -5 -59 -18 -59 -26 0 -5 7 -6
17 -3 10 4 14 2 9 -5 -4 -7 1 -9 16 -5 13 3 31 6 40 6 9 1 18 12 21 24 5 27
-5 37 -20 22z m-23 -33 c0 -3 -4 -8 -10 -11 -5 -3 -10 -1 -10 4 0 6 5 11 10
11 6 0 10 -2 10 -4z"/>
<path d="M3491 3856 c-9 -10 -8 -15 2 -19 8 -3 13 3 13 14 0 23 0 23 -15 5z"/>
<path d="M3443 3853 c-7 -2 -13 -9 -13 -15 0 -7 5 -7 13 1 8 6 18 7 22 3 5 -4
5 -1 1 6 -4 6 -8 12 -9 11 -1 0 -8 -3 -14 -6z"/>
<path d="M3544 3828 c-4 -7 -4 -10 1 -6 4 4 14 0 22 -10 13 -15 13 -15 3 6
-12 25 -16 27 -26 10z"/>
<path d="M3506 3809 c3 -5 9 -7 14 -4 4 3 10 0 12 -7 2 -6 12 -12 21 -14 9 -1
15 2 11 7 -3 5 -9 7 -14 4 -4 -3 -10 0 -12 7 -2 6 -12 12 -21 14 -9 1 -15 -2
-11 -7z"/>
<path d="M3610 3810 c0 -5 5 -10 10 -10 6 0 10 5 10 10 0 6 -4 10 -10 10 -5 0
-10 -4 -10 -10z"/>
<path d="M2176 3883 c-6 -14 -5 -15 5 -6 7 7 10 15 7 18 -3 3 -9 -2 -12 -12z"/>
<path d="M2206 3892 c-3 -5 1 -9 9 -9 8 0 15 4 15 9 0 4 -4 8 -9 8 -6 0 -12
-4 -15 -8z"/>
<path d="M4090 3801 c0 -7 -7 -11 -15 -8 -8 4 -16 3 -19 -1 -3 -4 4 -8 14 -9
20 -2 36 14 26 24 -3 4 -6 1 -6 -6z"/>
<path d="M4576 3845 c-3 -8 -1 -15 4 -15 6 0 10 7 10 15 0 8 -2 15 -4 15 -2 0
-6 -7 -10 -15z"/>
<path d="M2975 5430 c-3 -5 -1 -10 4 -10 6 0 11 5 11 10 0 6 -2 10 -4 10 -3 0
-8 -4 -11 -10z"/>
<path d="M4337 5348 c2 -5 13 -8 23 -8 10 0 21 3 23 8 3 4 -8 7 -23 7 -15 0
-26 -3 -23 -7z"/>
<path d="M4573 5339 c2 -25 34 -37 34 -12 0 7 -4 10 -8 7 -4 -2 -12 3 -17 13
-9 14 -10 13 -9 -8z"/>
<path d="M4122 5329 c2 -6 -3 -14 -11 -17 -9 -3 -11 0 -6 8 5 9 4 11 -3 6 -17
-11 -15 -15 14 -26 16 -7 23 -14 18 -22 -6 -10 -5 -10 7 -1 11 9 18 8 33 -2
14 -11 22 -11 36 -2 10 6 17 14 14 18 -2 4 6 9 17 12 15 4 19 2 15 -9 -3 -8
-1 -14 5 -14 6 0 9 8 7 18 -2 9 -10 16 -18 14 -8 -2 -21 5 -28 15 -14 17 -14
17 -9 -3 6 -26 -7 -52 -17 -35 -4 6 -2 11 4 11 6 0 8 5 5 11 -4 6 -14 8 -24 5
-13 -5 -13 -4 2 8 16 12 15 14 -9 14 -14 0 -21 -3 -15 -7 6 -4 2 -12 -11 -20
-18 -11 -20 -11 -15 3 3 8 2 18 -4 21 -5 4 -8 1 -7 -6z m63 -28 c-3 -2 0 -10
7 -18 8 -11 7 -12 -6 -7 -9 3 -16 11 -16 16 0 6 -7 7 -16 4 -8 -3 -12 -2 -9 3
3 6 14 9 25 8 10 -1 17 -3 15 -6z"/>
<path d="M4270 5330 c0 -5 5 -10 10 -10 6 0 10 5 10 10 0 6 -4 10 -10 10 -5 0
-10 -4 -10 -10z"/>
<path d="M4312 5332 c-9 -6 -5 -12 15 -20 24 -11 26 -10 11 1 -10 8 -15 17
-11 20 9 9 1 8 -15 -1z"/>
<path d="M4530 5330 c-8 -5 -10 -10 -5 -10 6 0 17 5 25 10 8 5 11 10 5 10 -5
0 -17 -5 -25 -10z"/>
<path d="M4070 5306 c0 -2 8 -10 18 -17 15 -13 16 -12 3 4 -13 16 -21 21 -21
13z"/>
<path d="M4298 5298 c5 -5 16 -8 23 -6 8 3 3 7 -10 11 -17 4 -21 3 -13 -5z"/>
<path d="M4450 5289 c0 -5 5 -7 10 -4 6 3 10 8 10 11 0 2 -4 4 -10 4 -5 0 -10
-5 -10 -11z"/>
<path d="M4050 5269 c0 -5 5 -7 10 -4 6 3 10 8 10 11 0 2 -4 4 -10 4 -5 0 -10
-5 -10 -11z"/>
<path d="M4375 5270 c-3 -5 -1 -10 4 -10 6 0 11 5 11 10 0 6 -2 10 -4 10 -3 0
-8 -4 -11 -10z"/>
<path d="M4754 5244 c3 -9 6 -17 6 -20 0 -2 7 -1 15 2 12 5 13 10 4 20 -16 19
-33 18 -25 -2z"/>
<path d="M1195 5240 c-3 -5 -1 -10 4 -10 6 0 11 5 11 10 0 6 -2 10 -4 10 -3 0
-8 -4 -11 -10z"/>
<path d="M150 5226 c0 -2 8 -10 18 -17 15 -13 16 -12 3 4 -13 16 -21 21 -21
13z"/>
<path d="M786 5208 c3 -5 10 -6 15 -3 13 9 11 12 -6 12 -8 0 -12 -4 -9 -9z"/>
<path d="M1196 5208 c3 -5 10 -6 15 -3 13 9 11 12 -6 12 -8 0 -12 -4 -9 -9z"/>
<path d="M3785 5210 c-3 -6 1 -7 9 -4 18 7 21 14 7 14 -6 0 -13 -4 -16 -10z"/>
<path d="M4950 5180 c6 -10 5 -22 0 -28 -7 -9 -7 -9 2 -2 16 13 17 47 2 47 -9
0 -10 -6 -4 -17z"/>
<path d="M157 5165 c-4 -8 -3 -16 1 -19 4 -3 9 4 9 15 2 23 -3 25 -10 4z"/>
<path d="M670 5171 c0 -6 4 -13 10 -16 6 -3 7 1 4 9 -7 18 -14 21 -14 7z"/>
<path d="M3926 5171 c-4 -5 -2 -12 3 -15 5 -4 12 -2 15 3 4 5 2 12 -3 15 -5 4
-12 2 -15 -3z"/>
<path d="M3667 5143 c4 -11 2 -14 -5 -9 -8 5 -12 -1 -12 -15 0 -21 -1 -21 -27
-4 -16 10 -23 12 -16 5 10 -11 9 -16 -5 -27 -9 -8 -11 -12 -4 -8 6 3 12 1 12
-4 0 -21 19 -10 49 28 24 30 28 40 17 44 -11 4 -13 1 -9 -10z m-27 -47 c0 -3
-4 -8 -10 -11 -5 -3 -10 -1 -10 4 0 6 5 11 10 11 6 0 10 -2 10 -4z"/>
<path d="M4965 5130 c-3 -5 -3 -10 2 -10 4 0 1 -5 -7 -10 -8 -5 -10 -10 -5
-10 6 0 17 5 25 10 11 7 11 10 2 10 -7 0 -10 5 -7 10 3 6 4 10 1 10 -3 0 -8
-4 -11 -10z"/>
<path d="M5004 5126 c1 -8 5 -18 8 -22 4 -3 5 1 4 10 -1 8 -5 18 -8 22 -4 3
-5 -1 -4 -10z"/>
<path d="M5130 5060 c-6 -11 -8 -20 -6 -20 3 0 10 9 16 20 6 11 8 20 6 20 -3
0 -10 -9 -16 -20z"/>
<path d="M5153 5035 c0 -8 4 -12 9 -9 5 3 6 10 3 15 -9 13 -12 11 -12 -6z"/>
<path d="M3690 5028 c0 -11 12 -10 30 2 12 7 10 9 -8 7 -12 0 -22 -5 -22 -9z"/>
<path d="M5132 5010 c0 -14 2 -19 5 -12 2 6 2 18 0 25 -3 6 -5 1 -5 -13z"/>
<path d="M1795 4980 c-3 -6 1 -7 9 -4 18 7 21 14 7 14 -6 0 -13 -4 -16 -10z"/>
<path d="M3407 4934 c-3 -4 -2 -16 4 -26 8 -15 8 -23 -1 -32 -8 -8 -10 -7 -5
5 4 10 0 19 -8 22 -11 4 -13 0 -10 -13 4 -16 1 -18 -17 -15 -20 4 -21 3 -8
-13 9 -9 13 -24 11 -32 -2 -8 7 -1 21 15 14 17 26 26 26 22 0 -4 9 -3 20 3 11
6 20 16 20 23 0 8 -4 6 -10 -3 -9 -13 -11 -13 -19 0 -5 8 -7 18 -5 22 3 4 0 8
-6 8 -6 0 -8 5 -5 10 7 11 2 13 -8 4z m-7 -70 c0 -8 -19 -13 -24 -6 -3 5 1 9
9 9 8 0 15 -2 15 -3z"/>
<path d="M3530 4916 c0 -2 8 -10 18 -17 15 -13 16 -12 3 4 -13 16 -21 21 -21
13z"/>
<path d="M4766 4825 c-11 -8 -16 -15 -12 -15 5 0 3 -6 -3 -14 -8 -10 -9 -16
-1 -21 6 -3 7 -12 3 -18 -5 -8 -2 -8 9 0 8 7 18 10 21 6 4 -3 7 -1 7 6 0 7 -7
11 -15 8 -8 -4 -17 -2 -20 3 -4 6 -3 10 2 10 4 0 13 11 20 25 6 14 10 25 10
25 -1 0 -11 -7 -21 -15z"/>
<path d="M4830 4806 c0 -2 7 -7 16 -10 8 -3 12 -2 9 4 -6 10 -25 14 -25 6z"/>
<path d="M4712 4767 c-8 -10 -6 -13 11 -14 12 0 16 1 9 4 -6 3 -10 9 -6 14 8
14 -2 11 -14 -4z"/>
<path d="M4806 4763 c-6 -14 -5 -15 5 -6 7 7 10 15 7 18 -3 3 -9 -2 -12 -12z"/>
<path d="M156 4751 c-3 -5 2 -15 12 -22 15 -12 16 -12 5 2 -7 9 -10 19 -6 22
3 4 4 7 0 7 -3 0 -8 -4 -11 -9z"/>
<path d="M187 4735 c3 -8 9 -12 14 -9 12 7 11 11 -5 17 -10 4 -13 1 -9 -8z"/>
<path d="M2229 4704 c0 -5 -2 -17 -4 -27 -2 -11 -1 -16 2 -13 4 3 12 1 19 -5
21 -17 23 5 3 30 -10 13 -19 19 -20 15z m22 -31 c13 -16 12 -17 -3 -4 -10 7
-18 15 -18 17 0 8 8 3 21 -13z"/>
<path d="M2225 4639 c-4 -5 0 -18 8 -27 8 -9 12 -24 9 -32 -4 -11 0 -11 15 3
11 10 25 17 31 15 5 -2 10 1 11 7 0 5 -7 10 -17 10 -9 0 -16 6 -14 13 2 10 -4
11 -19 7 -15 -5 -19 -4 -15 4 4 6 5 11 2 11 -3 0 -8 -5 -11 -11z m40 -29 c3
-5 1 -10 -4 -10 -6 0 -11 5 -11 10 0 6 2 10 4 10 3 0 8 -4 11 -10z"/>
<path d="M3150 4631 c-6 -12 -16 -18 -22 -15 -7 4 -8 3 -4 -4 4 -7 3 -12 -3
-12 -5 0 -12 6 -14 13 -4 9 -6 8 -6 -2 -1 -11 -4 -11 -15 -1 -12 9 -17 8 -28
-9 -10 -16 -15 -18 -28 -8 -12 9 -13 9 -3 -3 10 -11 10 -17 -3 -31 -9 -10 -14
-24 -11 -31 4 -9 6 -7 6 4 1 22 31 12 31 -10 0 -13 3 -12 16 4 11 13 17 15 20
7 3 -7 10 -13 16 -13 6 0 6 6 -2 15 -6 8 -8 20 -4 26 5 8 3 9 -6 4 -9 -5 -11
-4 -6 4 6 8 12 9 20 2 7 -6 17 -7 21 -3 5 4 5 1 1 -6 -4 -7 -12 -9 -18 -6 -7
4 -8 2 -4 -5 4 -6 12 -9 17 -6 13 9 11 -19 -3 -35 -11 -12 -10 -12 5 0 10 7
17 20 16 29 -3 30 1 42 11 36 5 -3 7 -13 4 -23 -5 -14 -4 -14 4 -2 6 8 8 19 4
25 -14 21 -12 47 2 42 8 -3 13 0 12 8 -4 25 -14 27 -26 6z m-68 -53 c-5 -7
-11 -17 -11 -23 -1 -9 -5 -10 -31 -6 -6 0 -1 15 12 31 14 19 25 27 32 20 6 -6
5 -14 -2 -22z m54 10 c-10 -6 -22 -6 -26 -2 -5 5 3 10 18 11 22 1 24 0 8 -9z"/>
<path d="M3061 4576 c-9 -11 -9 -16 1 -22 7 -4 10 -4 6 1 -4 4 -3 14 3 22 6 7
9 13 6 13 -2 0 -10 -6 -16 -14z"/>
<path d="M2956 4581 c-3 -5 1 -11 9 -14 9 -4 12 -1 8 9 -6 16 -10 17 -17 5z"/>
<path d="M3001 4583 c-1 -6 -4 -20 -7 -30 -5 -17 -5 -17 6 0 6 10 9 23 6 30
-3 9 -5 9 -5 0z"/>
<path d="M2935 4550 c-3 -5 -1 -10 4 -10 6 0 11 5 11 10 0 6 -2 10 -4 10 -3 0
-8 -4 -11 -10z"/>
<path d="M2208 4519 c-10 -16 -13 -29 -8 -29 5 0 11 9 15 19 4 12 12 18 21 14
7 -3 14 -1 14 5 0 23 -27 18 -42 -9z"/>
<path d="M2248 4518 c-10 -10 -14 -18 -10 -18 4 0 13 5 20 12 7 7 12 8 12 2 0
-6 6 -11 13 -11 7 0 13 8 13 18 0 13 -4 15 -12 8 -7 -5 -14 -6 -16 -2 -1 5
-11 1 -20 -9z"/>
<path d="M3077 4509 c7 -7 15 -10 18 -7 3 3 -2 9 -12 12 -14 6 -15 5 -6 -5z"/>
<path d="M555 4320 c-3 -6 1 -7 9 -4 18 7 21 14 7 14 -6 0 -13 -4 -16 -10z"/>
<path d="M246 4007 c3 -10 9 -15 12 -12 3 3 0 11 -7 18 -10 9 -11 8 -5 -6z"/>
<path d="M110 3549 c0 -5 5 -7 10 -4 6 3 10 8 10 11 0 2 -4 4 -10 4 -5 0 -10
-5 -10 -11z"/>
</g>
</svg>
